<svg width="24" height="24" viewBox="0 0 24 24" fill="none" xmlns="http://www.w3.org/2000/svg">
<path d="M7.5 0.999998C3.7 2.5 0.900005 6.6 0.500005 11.2C0.100005 15.2 0.100005 15.3 0.800005 12C2.4 5.2 5.9 0.899998 8.3 2.9C9.4 3.7 10.1 3.5 11.5 2C13.2 0.0999983 13.2 -1.73968e-06 11.4 0.0999983C10.4 0.0999983 8.6 0.499998 7.5 0.999998Z" fill="black"/>
<path d="M17.8 3C22.3 5.8 25.1 14 21.5 14C19.8 14 19.6 14.9 21 17C22.4 19.3 23.5 17.2 23.5 12C23.5 8 23 6.6 20.6 4.1C18.9 2.4 16.9 1 16.1 1C15.2 1 16 1.9 17.8 3Z" fill="black"/>
<path d="M3.8 20.2C6.6 23 7.7 23.5 12 23.5C15.5 23.5 17.4 23 18.7 21.6C20.5 19.8 20.4 19.8 17.3 21.4C15.5 22.3 13.2 23 12.1 23C9.2 23 5 20.9 5.7 19.7C6.3 18.6 4.2 17 2 17C1.1 17 1.7 18.2 3.8 20.2Z" fill="black"/>
</svg>
