<?xml version="1.0" standalone="no"?>
<!DOCTYPE svg PUBLIC "-//W3C//DTD SVG 20010904//EN"
 "http://www.w3.org/TR/2001/REC-SVG-20010904/DTD/svg10.dtd">
<svg version="1.0" xmlns="http://www.w3.org/2000/svg"
 width="24.000000pt" height="24.000000pt" viewBox="0 0 24.000000 24.000000"
 preserveAspectRatio="xMidYMid meet">

<g transform="translate(0.000000,24.000000) scale(0.100000,-0.100000)"
fill="#000000" stroke="none">
<path d="M75 230 c-38 -15 -66 -56 -70 -102 -4 -40 -4 -41 3 -8 16 68 51 111
75 91 11 -8 18 -6 32 9 17 19 17 20 -1 19 -10 0 -28 -4 -39 -9z"/>
<path d="M178 210 c45 -28 73 -110 37 -110 -17 0 -19 -9 -5 -30 14 -23 25 -2
25 50 0 40 -5 54 -29 79 -17 17 -37 31 -45 31 -9 0 -1 -9 17 -20z"/>
<path d="M91 149 c-26 -46 -22 -84 9 -94 59 -19 85 31 49 94 -12 23 -26 41
-29 41 -3 0 -17 -18 -29 -41z m55 -14 c22 -41 11 -70 -26 -70 -37 0 -48 29
-26 70 11 19 22 35 26 35 4 0 15 -16 26 -35z"/>
<path d="M90 92 c0 -12 19 -26 26 -19 2 2 -2 10 -11 17 -9 8 -15 8 -15 2z"/>
<path d="M38 38 c28 -28 39 -33 82 -33 35 0 54 5 67 19 18 18 17 18 -14 2 -18
-9 -41 -16 -52 -16 -29 0 -71 21 -64 33 6 11 -15 27 -37 27 -9 0 -3 -12 18
-32z"/>
</g>
</svg>
