<svg width="60" height="60" viewBox="0 0 60 60" fill="none" xmlns="http://www.w3.org/2000/svg">
<path d="M1.75436 30.4763L1.55386 30.3753C1.10274 30.1229 0.751868 29.7443 0.501246 29.2648C0.150373 28.6086 0 28.0028 0 27.3718L0.0501246 27.0437C0.0501246 26.539 0.175435 26.0847 0.400995 25.6556L0.601495 25.277C0.701745 25.0751 0.852115 24.8984 0.977431 24.7217C1.12781 24.545 1.15287 24.3179 1.10274 24.116L0.977431 23.7122C0.827055 23.2074 0.726805 22.7026 0.726805 22.1978L0.65162 21.8949C0.65162 21.3397 0.801995 20.7844 1.15287 20.3806L1.40349 20.0525C1.57893 19.8001 1.85461 19.6486 2.15536 19.5477C2.40598 19.472 2.58142 19.2196 2.60648 18.9167L2.6566 18.0586C2.6566 17.3771 2.98241 16.7461 3.48366 16.2918L4.08515 15.8376C4.21046 15.7114 4.33577 15.5852 4.43602 15.3833C4.56133 15.2318 4.58639 15.0299 4.56133 14.8785C4.5112 14.6261 4.56133 14.5504 4.68664 14.5252C5.08764 14.6766 5.33826 14.6261 5.51369 14.4242L5.8395 13.9951L6.74175 12.9856C6.99237 12.7332 7.09262 12.2789 6.94225 11.9255L6.64151 11.2693C6.59138 11.1179 6.64151 10.9412 6.76682 10.8907C7.09263 10.8907 7.31819 11.0169 7.41844 11.2188L7.51869 11.3955C7.66906 11.6984 8.01993 11.8498 8.27055 11.7236C8.82192 11.5217 9.27304 11.4712 9.6991 11.4712H10.5011C11.0525 11.4712 11.5036 11.0926 11.6038 10.5121C11.7041 9.80538 11.9547 9.25012 12.3056 8.87153C12.6815 8.44248 13.1076 8.11436 13.6088 7.86197C14.2604 7.50864 14.6614 7.00383 14.7867 6.34761C14.9622 5.53996 15.3882 4.95946 15.9647 4.58087L17.8694 3.49558L18.4208 3.16748C18.7466 2.96557 19.0473 2.7132 19.298 2.4103L19.7992 1.80457C20.0498 1.5522 20.3004 1.37551 20.6012 1.29978C20.8518 1.22405 21.2027 1.1736 21.5034 1.19883L22.5059 1.27456C23.0072 1.27456 23.4082 1.40074 23.8092 1.57743L24.0598 1.70362C24.3104 1.80457 24.561 1.75412 24.6863 1.57743L24.9119 1.45125L25.9896 0.315483C26.2402 0.0631134 26.5409 -0.0378445 26.8668 0.0126092C27.1926 0.0631133 27.5184 0.189298 27.8191 0.34071C28.2702 0.593079 28.6462 0.694087 29.0722 0.694087H29.3229C29.8742 0.694087 30.4256 0.769818 30.977 0.896003L31.3529 0.996961C31.7288 1.09792 32.1048 0.946507 32.3554 0.643634C32.4306 0.517449 32.606 0.492172 32.7063 0.59313C32.7814 0.643634 32.8065 0.694087 32.8316 0.769818C32.8817 1.2746 33.1824 1.65319 33.5834 1.77939L33.9844 1.90557C34.4105 2.03176 34.7864 2.3094 35.0371 2.66275C35.2877 3.04135 35.5884 3.41992 35.9393 3.67232L36.1899 3.92469C36.4405 4.17706 36.7914 4.27801 37.1423 4.25279H38.621C39.2224 4.25279 39.7989 4.35375 40.3753 4.60616C40.9267 4.85853 41.5031 4.90904 42.0294 4.70712C42.5808 4.53043 43.1572 4.45475 43.7337 4.53043L44.8113 4.70712C45.3126 4.75763 45.8138 5.01 46.1146 5.38859L46.2399 5.51477C46.4905 5.76714 46.7411 6.09527 46.9917 6.44862C47.1421 6.77672 47.493 6.9534 47.8439 6.9534H49.3977C49.7737 6.9534 50.1496 7.02913 50.4503 7.20577C50.7761 7.45814 51.0518 7.71055 51.3024 7.96294L51.553 8.29105C51.8538 8.64437 52.0041 9.12394 51.9791 9.62872C51.9791 10.0326 52.2798 10.3859 52.6808 10.3859L53.1821 10.4364C53.5329 10.4364 53.8337 10.6888 54.0091 11.0169L54.2597 11.5217L54.9114 12.9856C55.0116 13.2379 55.0367 13.4903 55.0116 13.6923C55.0116 13.9446 55.0868 14.1465 55.2622 14.2475L55.5128 14.4242C55.8386 14.6766 56.0141 15.0552 55.9639 15.4843L55.7885 16.6705L55.7384 17.1753C55.6883 17.4277 55.8136 17.7558 56.0391 17.9325C56.4151 18.1848 56.5905 18.513 56.6155 18.8916V19.3963C56.6155 19.6488 56.5654 19.9516 56.3649 20.1535C56.2145 20.3554 56.1143 20.6078 56.1143 20.9107L56.1895 21.4912C56.1895 21.895 56.4401 22.2484 56.6908 22.5008C57.0416 22.7531 57.2422 23.157 57.2923 23.5608C57.3925 24.1918 57.4176 24.6966 57.4176 25.2014V25.7819C57.4176 25.9838 57.4176 26.1857 57.4928 26.3876C57.5429 26.5643 57.6682 26.7409 57.8186 26.8419L58.3198 27.2205C58.8211 27.5486 59.1719 27.9777 59.3724 28.5582C59.623 29.1134 59.6982 29.6939 59.6982 30.2744V30.4763C59.6982 30.9306 59.6481 31.4102 59.4977 31.8393C59.3724 32.2935 59.3975 32.7226 59.5729 33.1012C59.7734 33.4546 59.8987 33.8584 59.9489 34.2875C60.0491 34.7922 59.999 35.297 59.8236 35.7009L59.7735 35.8775C59.6482 36.1804 59.4477 36.458 59.1971 36.6852C58.9465 36.9376 58.6958 37.089 58.5454 37.2657C58.395 37.4172 58.2948 37.6695 58.37 37.8967L58.4452 38.25C58.5705 38.7548 58.5705 39.2596 58.4452 39.7139V39.9158C58.3449 40.2944 58.1946 40.6225 58.0442 40.9254C57.8687 41.2535 57.6181 41.5059 57.2923 41.6825L56.9164 41.935C56.7409 42.0359 56.6156 42.2631 56.6156 42.4902C56.6156 42.7426 56.5154 42.995 56.365 43.1464L55.9891 43.6512C55.7385 43.9793 55.4126 44.257 55.0618 44.4084C54.7109 44.6608 54.4102 44.9132 54.1846 45.1656C53.934 45.4685 53.7335 45.8218 53.6332 46.1751C53.533 46.6294 53.1821 46.8818 52.8062 46.8818H51.4528C51.1019 46.8818 50.7761 47.1342 50.6258 47.4371C50.4503 47.8409 50.2749 48.1186 50.0493 48.371C49.7987 48.6234 49.6483 48.9262 49.5481 49.2796C49.498 49.5824 49.2473 49.7844 48.9967 49.6834C48.6709 49.5319 48.3451 49.6834 48.1947 49.9358C47.894 50.4406 47.5932 50.8191 47.2674 51.1473L47.092 51.2987C46.7662 51.5511 46.3401 51.753 45.9642 51.753C45.5131 51.753 45.2875 51.9549 45.2123 52.2578C45.1371 52.5102 45.087 52.8383 45.0619 53.1159C45.0117 53.4188 44.9115 53.6964 44.8113 53.9488L44.686 54.1003C44.4353 54.4789 44.2348 54.8574 43.9842 55.1856L43.884 55.337C43.5582 55.7661 43.1321 56.0942 42.6309 56.2204C42.0294 56.4223 41.503 56.4728 40.9767 56.4728H40.6259C40.3753 56.4728 40.1246 56.6242 39.9492 56.8766L39.7988 57.129L39.6484 57.4319L39.3226 57.9871C39.072 58.4414 38.6961 58.7443 38.1948 58.8958C37.6936 59.0219 37.1172 59.0724 36.5908 59.0472L36.1898 58.9968C35.839 58.9968 35.5132 58.8958 35.1874 58.7444C34.9367 58.6434 34.5859 58.7444 34.4355 58.9968C34.1849 59.3501 33.8841 59.552 33.5583 59.653L32.8064 59.9054C32.3052 60.0315 31.7538 60.0315 31.2275 59.9054L30.8265 59.7792C30.5759 59.7792 30.3253 59.653 30.1248 59.5268C29.8742 59.4006 29.6235 59.3501 29.3729 59.3753L29.0471 59.4258C28.5459 59.4763 28.0947 59.4258 27.6436 59.2997L26.967 59.148C26.6663 59.047 26.3906 58.8451 26.2151 58.5675C26.0898 58.3151 25.8141 58.1132 25.4633 58.0627H24.6613C24.16 57.987 23.7089 57.8103 23.4082 57.4317L22.4057 56.4726L22.0548 56.1698L21.5034 55.7659L21.1776 55.5136C20.8017 55.2612 20.3506 55.0593 19.8744 55.0088L18.3706 54.7564C18.2203 54.7564 18.12 54.7059 17.9697 54.6806L17.3932 54.5545C17.1426 54.504 16.892 54.302 16.7165 54.0497C16.5662 53.7973 16.2905 53.6963 16.0399 53.7973C15.5386 53.9992 15.1376 54.0497 14.7366 54.1254H14.3857C13.7341 54.1759 13.1326 54.0749 12.5311 53.7973C11.9296 53.5449 11.5286 53.1663 11.1527 52.6868C10.852 52.2577 10.4008 51.9296 9.84947 51.8286L9.14773 51.6772C8.64648 51.5762 8.14524 51.3743 7.69412 51.0714C7.19287 50.7181 6.94225 50.39 6.74175 49.9861C6.54125 49.6075 6.41594 49.1785 6.39088 48.7242V48.5223C6.34075 48.0175 5.98988 47.5632 5.5137 47.437C4.93727 47.2603 4.51121 47.008 4.13527 46.6798C3.7844 46.3517 3.5839 45.8722 3.5839 45.3674L3.63403 44.2569C3.63403 43.8278 3.50872 43.4492 3.20797 43.1716C2.90722 42.8687 2.70672 42.4901 2.70672 42.0863L2.63154 41.1777C2.58141 40.5215 2.4561 39.8653 2.30573 39.209C2.15535 38.6285 2.38091 38.048 2.8571 37.7704L3.03253 37.6442C3.28315 37.4675 3.3834 37.1394 3.23303 36.8366L3.03253 36.5841C2.78191 36.3318 2.53129 36.1551 2.28067 36.0794C2.08017 36.0289 2.03004 35.827 2.03004 35.7007L2.28067 35.3979C2.43104 35.2212 2.40598 34.9436 2.28067 34.7921C2.08017 34.5902 1.97992 34.3378 1.95486 34.0854L1.90473 32.3187C1.90473 31.9654 1.95486 31.612 2.05511 31.2586C2.15536 30.9558 2.05511 30.6024 1.75436 30.451L1.75436 30.4763ZM26.566 27.1447C26.7414 26.968 26.7164 26.6399 26.566 26.5137C26.3154 26.3118 26.1399 26.0847 25.9896 25.8323L25.739 25.4284C25.5635 25.1003 25.338 24.8227 25.0873 24.5703L25.0372 24.5198C24.7866 24.3179 24.6111 24.0655 24.4608 23.7626C24.3355 23.5102 24.3355 23.2578 24.4608 23.0054L24.6112 22.753C24.7615 22.5006 24.8618 22.1473 24.8618 21.8444V21.7434C24.8618 21.4911 24.7615 21.2387 24.6112 20.9863C24.5109 20.7844 24.4107 20.532 24.3605 20.2796V20.1282C24.2853 19.8253 24.3605 19.4972 24.561 19.2448C24.7615 18.9167 24.9119 18.6138 24.9871 18.2352V18.1848C25.0873 17.9324 25.0372 17.6043 24.8868 17.3519C24.7365 17.0995 24.6863 16.8471 24.7866 16.5442L24.962 16.0394C25.1124 15.5851 25.338 15.1813 25.6387 14.828L25.9896 14.4493L26.2402 14.1465L26.3906 13.995C26.5409 13.8435 26.566 13.5912 26.4407 13.3893C26.3154 13.1369 26.2402 12.8845 26.2903 12.6321L26.3404 12.2787C26.4156 11.7739 26.5911 11.2691 26.9169 10.8653L27.0171 10.7644C27.3931 10.2596 27.8692 9.93148 28.4206 9.7548L29.0973 9.50243C29.398 9.40147 29.5985 9.07337 29.5985 8.74525C29.5985 8.34142 29.7239 7.98807 29.9494 7.65996L30.0747 7.53378C30.3253 7.10472 30.6261 6.67565 30.8266 6.22134L31.002 5.89324C31.0522 5.81751 31.0772 5.71655 31.0772 5.64082C31.0772 5.21176 30.8266 4.83317 30.4256 4.80792L29.3229 4.73219C28.6963 4.68169 28.0697 4.73219 27.4682 4.73219L25.338 4.98456C25.0121 4.98456 24.7615 5.23698 24.7365 5.5903C24.7365 5.94363 24.4858 6.24653 24.1851 6.34748L23.2828 6.59985L23.0322 6.67558L22.2804 6.92795C21.729 7.10464 21.2779 7.50845 21.0272 8.06372L20.8267 8.39182C20.5761 8.94708 20.1501 9.40138 19.6238 9.72949C19.1225 10.0576 18.8719 10.5876 18.8218 11.1934V11.4457C18.7716 11.9505 18.6213 12.4553 18.3205 12.8087L18.1952 13.0106C17.9947 13.2629 17.9446 13.5911 18.0699 13.8687C18.1952 14.1716 18.2704 14.4997 18.2453 14.8278V16.1655C18.2453 16.5188 17.9947 16.8217 17.7441 16.9226C17.3932 17.0488 17.1677 17.3265 17.0674 17.6798L16.9421 18.1846C16.8418 18.6894 17.0173 19.1942 17.4433 19.497C17.8443 19.7999 18.095 20.2542 18.1952 20.8095V21.2638C18.2704 21.7686 18.5461 22.2733 18.9972 22.5257C19.4483 22.8286 19.7992 23.2829 19.9997 23.7877L20.125 24.1915C20.3255 24.7468 20.7766 25.0749 21.2779 25.1254H21.4282C21.8794 25.1254 22.2804 25.3777 22.531 25.7816C22.7816 26.1854 23.1826 26.463 23.6337 26.5388L24.3355 26.7407C24.7615 26.8669 25.1625 27.094 25.4883 27.4221L25.5385 27.4726C25.7891 27.6746 26.1901 27.6493 26.4156 27.3717L26.5911 27.1698L26.566 27.1447ZM29.4231 24.8227C29.6737 24.9741 29.9244 24.8984 30.0246 24.6713L30.0998 24.5451C30.2752 24.1918 30.5008 23.8384 30.7514 23.5355L31.2527 22.7783C31.3278 22.7783 31.3529 22.7278 31.378 22.6774L31.9795 21.8697C32.2301 21.6174 32.5308 21.4407 32.8817 21.4407C33.2075 21.4407 33.4832 21.264 33.6336 20.9359C33.7338 20.5826 33.8842 20.2544 34.1849 19.9768L34.3102 19.8253C34.5609 19.573 34.8115 19.4467 35.0621 19.3206C35.3879 19.2701 35.6887 19.2196 35.9894 19.2196H36.7413C37.042 19.2196 37.2927 19.0934 37.443 18.841C37.5934 18.5886 37.819 18.4119 38.0696 18.2857L38.3202 18.1848C38.7212 18.0081 39.1723 17.8819 39.6234 17.8314L40.1247 17.7809C40.4254 17.7809 40.7512 17.7809 41.052 17.9576C41.3026 18.1343 41.6284 18.1091 41.879 17.9071L42.0545 17.8062C42.4304 17.5538 42.8565 17.3519 43.3076 17.3014H43.3577C43.859 17.2004 44.3101 17.2004 44.8113 17.2257H45.062C45.5632 17.3014 45.9893 17.478 46.3151 17.8566L46.3903 17.9576C46.6409 18.21 47.0419 18.4119 47.3928 18.4119H47.8188C47.9441 18.4119 48.0694 18.3614 48.1446 18.2352C48.2198 18.1595 48.3451 18.0838 48.4704 18.0838H48.721C49.0719 18.0838 49.3977 18.1847 49.7235 18.2857L50.1496 18.4624C50.5506 18.5886 50.9766 18.7148 51.4027 18.7653H51.7034C51.9039 18.7653 52.0292 18.6391 52.0292 18.4624C52.0292 18.21 51.9791 17.9576 51.8538 17.7557L51.6783 17.3519C51.4778 17.0238 51.3274 16.6704 51.1771 16.3423L51.1269 16.2161C51.0016 15.9637 51.0016 15.7113 51.1269 15.4589V15.3327C51.1771 15.1308 51.0768 14.9037 50.8763 14.828H50.6758C50.2748 14.7018 49.924 14.4746 49.6733 14.1465L49.4227 13.8941C49.1721 13.6418 49.0217 13.2631 48.9215 12.8846C48.7962 12.5565 48.5205 12.3041 48.1696 12.3041H47.117C46.7412 12.2536 46.4153 12.0516 46.1898 11.7488L46.0895 11.6226C45.9141 11.3702 45.7637 11.0673 45.6635 10.7645C45.5382 10.5121 45.2625 10.3606 45.0118 10.4364L44.7111 10.5373C44.2098 10.714 43.7086 10.7897 43.2074 10.7392L42.8064 10.6888C42.3803 10.6888 41.9793 10.5121 41.6535 10.2597L41.4029 10.083C41.2024 9.93162 41.0019 9.83066 40.7763 9.7297C40.5257 9.62874 40.3252 9.6792 40.1748 9.85589L40.0495 10.0073C39.7989 10.2597 39.448 10.4616 39.0971 10.5121L37.7438 10.5879C37.4932 10.5879 37.2425 10.714 37.0671 10.8907C36.8666 11.0674 36.641 11.1936 36.3904 11.2441H36.3403C36.0897 11.2441 35.839 11.4208 35.5884 11.5974V11.6479C35.3378 11.9003 35.012 12.0265 34.6862 12.0265L34.5859 12.077C34.2852 12.077 33.9844 12.077 33.6837 12.1527H33.3829C32.9569 12.2285 32.6311 12.5818 32.5308 13.0361L32.4306 13.6166C32.3554 14.0204 32.18 14.3738 31.9293 14.7019C31.6787 15.0048 31.378 15.2067 31.002 15.2067H30.6261H30.576C30.3253 15.2572 30.0747 15.5348 30.1248 15.8377C30.175 16.2667 30.1248 16.6453 30.0497 17.0239L29.9494 17.453C29.8492 17.8316 29.5985 18.1344 29.2727 18.2606L29.1224 18.3363H29.0722C28.9219 18.4373 28.8216 18.6644 28.9469 18.8411C29.0973 19.0935 29.1474 19.3459 29.1224 19.5983L29.0472 20.4058C29.0472 20.7087 28.9219 20.9863 28.7965 21.2387C28.6462 21.4911 28.6462 21.7435 28.7464 21.9959L28.997 22.5512C29.1224 22.8035 29.1474 23.0559 29.0722 23.3588C28.997 23.6112 28.9469 23.8636 28.972 24.116C28.972 24.3684 29.1223 24.6208 29.3228 24.7217L29.373 24.7722L29.4231 24.8227ZM49.2223 43.0706C49.4729 43.323 49.8489 43.424 50.1496 43.222L50.6508 42.8939C50.9014 42.7173 51.1019 42.4649 51.2022 42.1368V42.0863L51.4529 41.3291L51.6032 41.0767L51.7035 40.8243L51.8037 40.6476C51.904 40.4457 52.0543 40.2943 52.305 40.2185L52.4052 40.1681C52.6057 40.1176 52.731 39.9157 52.731 39.7138C52.731 39.4614 52.8563 39.2595 52.9816 39.0828L53.1821 38.9061L53.6834 38.2499V38.1995C53.8337 37.9976 53.934 37.7704 53.9841 37.518C54.0342 37.2656 53.9841 37.0132 53.8839 36.7608L53.8338 36.6599C53.7335 36.4075 53.6834 36.2308 53.6583 36.0037L53.5831 35.297L53.5079 34.5398C53.5079 34.2874 53.6082 34.035 53.7585 33.7826C53.934 33.5807 54.0593 33.3283 54.1595 33.0759V32.9749L54.2097 32.9245C54.2598 32.6721 54.1345 32.4197 53.9089 32.4197C53.6583 32.2935 53.4077 32.0916 53.3325 31.7887L53.2573 31.6373C53.132 31.183 53.0568 30.7287 53.0568 30.2744L53.1069 29.0124V28.9367C53.1069 28.5076 52.756 28.1795 52.355 28.1795H52.3049C51.8037 28.1795 51.4027 28.0281 51.0518 27.6747L50.8513 27.4223L50.35 26.8418L49.6984 26.0847C49.4478 25.7313 49.1972 25.4284 48.8714 25.1256C48.6207 24.8731 48.2448 24.6208 47.8689 24.5703L47.3676 24.4946C47.117 24.4441 46.7912 24.3179 46.5155 24.1412C46.315 23.9898 46.0143 24.0403 45.8138 24.2422L45.488 24.5955L45.3376 24.6965C45.1621 24.747 44.9867 24.646 44.9115 24.4441C44.8113 24.1412 44.8113 23.7879 44.9616 23.485V23.3336C44.9616 23.1569 44.8113 23.0307 44.6609 23.0812H44.2599C43.8088 23.0812 43.3577 23.0307 42.9316 22.8288L42.681 22.7279C42.4304 22.6017 42.1296 22.5259 41.8539 22.5259C41.6033 22.5259 41.3527 22.5764 41.1021 22.7279L41.0018 22.8036C40.7011 23.0055 40.3502 23.1065 39.9993 23.1317H39.1723C38.7963 23.1317 38.4204 23.2579 38.1698 23.4598C37.844 23.6617 37.4931 23.7879 37.1172 23.8636L36.4405 23.9646C36.1397 24.0403 35.8139 24.1665 35.5382 24.3936C35.2876 24.646 34.9367 24.7975 34.6109 24.8984L34.4856 24.9489C34.0846 25.0751 33.7338 25.3275 33.4831 25.7061L33.1824 26.0089C33.007 26.2613 33.007 26.5642 33.1824 26.8166C33.3328 27.069 33.6335 27.1447 33.9343 27.069L34.3102 26.9175C34.5107 26.8418 34.7363 26.9175 34.9117 27.0185C35.0621 27.1447 35.2876 27.2204 35.5132 27.1952L36.1397 27.1195C36.4906 27.1195 36.8415 27.1195 37.1924 27.2204C37.5683 27.3466 37.8941 27.4728 38.1949 27.7252C38.4956 27.9776 38.8214 28.0785 39.1973 28.129C39.5733 28.1795 39.9492 28.2552 40.3001 28.3814L40.5507 28.4319C40.8013 28.5076 41.0018 28.6842 41.1522 28.9366C41.2775 29.1386 41.4028 29.4414 41.4028 29.6938V29.7695C41.4028 30.0724 41.6534 30.2743 41.9041 30.2743H42.0544C42.4554 30.2743 42.8815 30.3248 43.3075 30.451L43.483 30.5267C43.7336 30.6277 43.9842 30.7791 44.1597 31.0315C44.3602 31.2839 44.4855 31.5363 44.5607 31.7887L44.6358 32.142C44.711 32.5206 44.7361 32.8992 44.7361 33.303V33.4292C44.7361 33.6816 44.9115 33.934 45.1872 34.035C45.4379 34.0854 45.7386 34.1864 46.0143 34.3378L46.1396 34.3883C46.4654 34.5902 46.7912 34.8426 47.0418 35.1455L47.1671 35.3222C47.4929 35.7008 47.6684 36.1803 47.6684 36.6598V36.8365C47.6684 37.2151 47.5932 37.5937 47.4679 37.947C47.3676 38.2499 47.4679 38.6033 47.7937 38.7042L47.9691 38.8304C48.3451 38.9819 48.6708 39.2595 48.9215 39.5876C49.1721 39.9662 49.2723 40.3952 49.2723 40.8495V41.6067C49.2222 41.8591 49.147 42.061 49.0217 42.2377C48.8964 42.4144 48.8964 42.6668 49.0217 42.8434L49.1721 43.0958L49.2223 43.0706ZM33.1824 30.1482H33.1323C33.0321 30.1482 32.9819 30.2743 33.007 30.4005L33.1073 30.9053C33.2075 31.3091 33.2576 31.713 33.3078 32.1168C33.3579 32.5206 33.5584 32.874 33.8591 33.1264H33.9594C34.3353 33.4292 34.5609 33.8835 34.5859 34.3378V35.5998C34.5358 35.8522 34.5859 36.1046 34.7363 36.3065L34.8616 36.4327C35.1123 36.7356 35.2125 37.0889 35.2376 37.4422L35.3127 38.8304C35.3127 39.1585 35.1122 39.4361 34.8115 39.4866L34.5609 39.5371C34.3854 39.5371 34.3103 39.739 34.3103 39.9157C34.3103 40.1177 34.3854 40.3448 34.4606 40.5467V40.5972C34.5358 40.8495 34.5609 41.102 34.5358 41.3543L34.4356 42.0358C34.3353 42.5406 34.1849 42.9949 33.9343 43.4492L33.7589 43.7521C33.6336 44.0044 33.4581 44.1559 33.2576 44.2569C33.007 44.3578 32.8316 44.5597 32.7564 44.8121L32.5559 45.7207C32.4306 46.2255 32.205 46.7303 31.9043 47.2351H31.8542C31.5534 47.6389 31.1775 47.9923 30.7264 48.2447L30.4256 48.4466L29.6737 48.8252C29.4231 48.9261 29.2727 49.1533 29.2226 49.4309L29.0973 50.2638C29.0221 50.7686 28.8467 51.1977 28.4958 51.5258L28.17 51.9044L27.7941 52.283L27.4181 52.6868C27.1174 53.0401 26.6663 53.1916 26.165 53.1159L25.2628 52.9392L24.4357 52.8382H24.2102C24.1099 52.9392 24.0849 53.0906 24.16 53.242C24.3355 53.5449 24.6112 53.7468 24.9119 53.7468L25.4633 53.8478C25.7139 53.8478 26.0146 53.974 26.2653 54.1002C26.5159 54.2769 26.7665 54.4031 27.0673 54.4788H27.1174C27.4432 54.605 27.7941 54.6303 28.1199 54.605L28.4958 54.5545C28.9219 54.504 29.3229 54.5545 29.6737 54.706L29.9745 54.807C30.0998 54.8574 30.3003 54.807 30.4256 54.6808C30.576 54.5293 30.7263 54.4284 30.9268 54.3527L31.1273 54.3022C31.4532 54.2013 31.779 54.1508 32.1298 54.1508H32.3303C32.6311 54.1508 32.9068 54.2013 33.1574 54.3527L33.2576 54.4032C33.4331 54.479 33.6336 54.4032 33.7589 54.2518C33.8341 54.0751 34.0095 53.8984 34.1849 53.747L34.8115 53.3179L35.2125 53.0655L35.413 52.9393C35.6636 52.7626 36.0145 52.687 36.3152 52.687L37.2175 52.6112C37.5684 52.5607 37.8691 52.3084 37.9694 51.955C38.0696 51.5764 38.22 51.1978 38.4706 50.8697C38.7212 50.5416 38.9718 50.264 39.2225 50.0116C39.5483 49.7592 39.8741 49.633 40.225 49.6078H40.4255C40.8265 49.532 41.1272 49.1534 41.1021 48.7496V48.6992V47.0586C41.1523 46.8063 41.2525 46.4781 41.4029 46.2257L41.9041 45.4686L42.1046 45.2161C42.255 45.0899 42.3552 44.9133 42.5307 44.7113L42.7813 44.3832C42.9317 44.1309 42.9317 43.8027 42.7312 43.5756C42.4806 43.3232 42.3553 42.9699 42.3051 42.6165V42.5155C42.255 42.1117 42.255 41.6827 42.3803 41.2536V41.1274C42.5056 40.7993 42.6811 40.4712 42.8816 40.1683C43.0821 39.9159 43.057 39.5626 42.8064 39.3607L42.3803 38.9821C42.0294 38.6792 41.8289 38.2249 41.7788 37.7706L41.7287 37.2658C41.7287 37.1144 41.7287 36.9377 41.6786 36.761L41.6284 36.3822C41.5783 35.9532 41.3277 35.6251 40.9768 35.3727L40.8014 35.3222C40.5508 35.1707 40.3001 34.9436 40.0996 34.6407C39.8991 34.3883 39.7989 34.035 39.7237 33.6816L39.6485 33.2526C39.6485 33.1011 39.5483 33.0001 39.3979 32.9245L38.9969 32.7983L38.1949 32.5459C37.9443 32.4954 37.6937 32.2935 37.5182 32.1168H37.4681C37.3177 31.9149 37.0671 31.9149 36.9167 32.0663L36.6661 32.3187C36.616 32.3944 36.5659 32.4197 36.4907 32.3944C36.3403 32.3944 36.2401 32.2683 36.2902 32.1421C36.3403 31.7382 36.1899 31.3344 35.8641 31.082L35.5383 30.8296L34.7864 30.3248C34.5859 30.2491 34.2852 30.3248 34.1849 30.5772L34.0847 30.7287C34.0847 30.7791 34.0095 30.8044 33.9844 30.8296C33.8842 30.8296 33.7338 30.8296 33.7338 30.7034L33.6586 30.5772C33.5834 30.4258 33.408 30.3249 33.2576 30.2744L33.1824 30.1482ZM30.175 32.6721L30.0497 32.5459C29.9244 32.4449 29.799 32.4702 29.6737 32.5963C29.4983 32.8992 29.3479 33.2273 29.2727 33.5554V33.6059C29.1975 33.934 28.8968 34.1611 28.5961 34.1107H28.3454H28.2953C27.9444 34.1107 27.6688 34.4135 27.6688 34.7669C27.6688 35.2212 27.5184 35.6755 27.2427 36.0288L27.0923 36.1803C26.8417 36.5084 26.4658 36.7356 26.0898 36.8618L25.8893 36.9122C25.6387 36.988 25.4382 37.1647 25.3881 37.4675C25.3881 37.7199 25.2377 37.9723 25.0372 38.1742L24.7866 38.3761C24.4858 38.7042 24.0347 38.8809 23.5836 38.9314L22.3305 39.0576C21.9295 39.0576 21.5786 39.31 21.328 39.6885C21.0774 40.0672 20.7014 40.3195 20.3255 40.37L19.7741 40.4205C19.3731 40.471 18.9471 40.471 18.521 40.37L18.2704 40.3195L17.5937 40.1429C17.3431 40.0671 17.1426 40.1429 16.9922 40.3195L16.7416 40.6477C16.4158 41.0263 15.9396 41.2029 15.4885 41.1524L13.8594 40.9505C13.6088 40.9505 13.4083 40.8243 13.1828 40.6982C12.9321 40.5467 12.7567 40.3701 12.5813 40.1934L11.9547 39.4362C11.8795 39.3857 11.7542 39.3605 11.6289 39.3857L11.278 39.5372L9.87453 39.8905C9.62391 39.9662 9.2981 39.8905 9.04748 39.7391C8.79686 39.5371 8.49611 39.4867 8.19536 39.4867H7.86955C7.56881 39.5624 7.36831 39.8905 7.46856 40.1934L7.56881 40.6982C7.64399 40.9505 7.61893 41.2534 7.49362 41.5058C7.36831 41.7582 7.39337 42.0106 7.56881 42.263L7.71918 42.4649C7.91968 42.7678 8.22043 43.0202 8.47105 43.2726C8.72167 43.5249 8.9723 43.7774 9.17279 44.1055L9.54873 44.7869C9.74923 45.1403 10.05 45.3422 10.451 45.3422C10.8269 45.3422 11.2028 45.4684 11.5036 45.7208L12.2555 46.4275C12.456 46.6042 12.7567 46.6294 12.9572 46.4779L13.0825 46.4275C13.2329 46.4275 13.3331 46.5285 13.3331 46.6799V46.806C13.3331 47.1341 13.5837 47.437 13.9096 47.5632L15.0374 47.8156C15.4384 47.9418 15.8394 48.068 16.2153 48.3204H16.4158C16.6163 48.3204 16.7917 48.1437 16.7667 47.9166V47.0332C16.7667 46.7808 16.8669 46.5284 17.0674 46.4275L17.1927 46.377C17.318 46.4275 17.4433 46.5284 17.3932 46.6293V47.0584C17.3932 47.3865 17.4935 47.6894 17.719 47.9165C17.9696 48.1689 18.2955 48.2194 18.5711 48.1185C18.8719 47.9923 19.1726 47.967 19.4984 47.9923L20.4258 48.0427C20.8769 48.0932 21.3029 48.0427 21.6789 47.866C22.13 47.7146 22.5059 47.5127 22.8568 47.2351L23.0072 47.1341L23.759 46.4526C24.0097 46.2003 24.3355 46.074 24.6362 46.074H25.6387C26.1399 46.0236 26.5911 45.5693 26.6412 45.0645L26.7414 44.5597C26.7414 44.2316 26.8918 43.9287 27.1174 43.6763C27.368 43.4239 27.6186 43.2725 27.8693 43.1715L28.17 43.0453C28.5961 42.8686 28.9219 42.4901 29.0722 42.0358L29.2226 41.43C29.3479 40.9252 29.5985 40.4205 29.9745 40.0924L30.0246 40.0418C30.3253 39.7895 30.3755 39.2847 30.175 38.9313L30.0998 38.7546C29.9244 38.5022 29.8993 38.1237 30.0246 37.7955C30.1499 37.4422 30.2752 37.1393 30.4757 36.8365L30.7264 36.4831C30.8266 36.2812 30.8266 35.9783 30.6762 35.8017C30.5259 35.5998 30.4256 35.3474 30.4256 35.095L30.3755 34.7416V33.8835C30.4256 33.6311 30.3755 33.303 30.3003 33.0506L30.2 32.7477L30.175 32.6721ZM26.5911 30.7539V30.6782C26.5911 30.4257 26.4407 30.2743 26.2402 30.2743H25.5886C25.338 30.3248 25.0873 30.3248 24.8868 30.2743H23.759C23.1826 30.2743 22.6312 30.1734 22.0799 30.0219L21.4784 29.8705L20.9771 29.7191L19.8493 29.3405C19.2478 29.1638 18.7967 28.76 18.521 28.2047L18.3957 27.9524C18.2203 27.5738 17.8443 27.3719 17.4684 27.4476C17.0423 27.4476 16.6163 27.4476 16.2153 27.2457L15.9145 27.1194C15.3381 26.8671 14.9121 26.3623 14.9121 25.6808L14.8118 24.9994C14.7366 24.646 14.5111 24.3179 14.2103 24.1917C13.8594 24.0403 13.5336 23.8384 13.2078 23.6112L13.0825 23.5355C12.7066 23.2326 12.3808 22.8288 12.2053 22.3492L12.1552 22.1978C12.0299 21.7939 12.0048 21.3649 12.1051 20.9358L12.1552 20.7844C12.2555 20.4563 12.2805 20.1281 12.2805 19.7748C12.2805 19.4719 12.1552 19.1691 11.9296 18.9419L11.5788 18.6138C11.1778 18.2857 10.9271 17.8062 10.9021 17.2762C10.852 16.7209 10.852 16.1909 10.9522 15.6609V15.5851V15.5094C10.9522 15.2065 10.7016 15.0046 10.451 15.0046H10.3758C10.05 15.0046 9.77429 15.2065 9.62391 15.5094C9.4986 15.8627 9.2981 16.1404 9.07254 16.418L8.97229 16.5442L8.47105 17.049L8.22042 17.3013C7.9698 17.5537 7.81943 17.9323 7.7693 18.3109C7.71918 18.6895 7.61893 19.0681 7.46856 19.4214L7.41843 19.5476C7.29312 19.8505 7.09262 20.1281 6.842 20.3048C6.59138 20.5067 6.41594 20.8096 6.41594 21.1124L6.36581 22.2735C6.36581 22.7782 6.29063 23.283 6.1152 23.7878L6.06507 23.9897C5.93976 24.3178 6.06507 24.6712 6.36581 24.8226L7.41843 25.2769L7.51868 25.3274C7.59387 25.3274 7.61893 25.3779 7.64399 25.4535C7.71918 25.5545 7.64399 25.7059 7.56881 25.7059L7.31818 25.8321C7.1678 25.8825 7.06756 26.034 7.01743 26.2107L6.96731 26.4631V26.5136L6.71669 27.927C6.66656 28.1289 6.66656 28.356 6.66656 28.5832C6.66656 28.7851 6.79187 28.9618 6.96731 29.0375L7.51868 29.2899C7.76931 29.4414 8.07005 29.618 8.27055 29.7947L8.52117 29.9966C8.59635 30.0975 8.72167 30.1985 8.82191 30.249L8.92216 30.3499C9.0976 30.5014 9.22291 30.7032 9.27303 30.9304L9.52366 32.0662C9.52366 32.3691 9.77428 32.6214 10.0249 32.6972L10.4259 32.8233C10.4259 32.8233 10.5011 32.8233 10.5512 32.8739L11.0525 33.0253C11.4535 33.1515 11.8043 33.3786 12.1051 33.6815C12.4058 33.9339 12.7066 34.262 12.9572 34.6154L13.0574 34.7163C13.2579 34.9687 13.5587 35.0949 13.8594 35.0192C14.1602 34.9435 14.486 34.9183 14.8118 34.9183H15.1877C15.4384 34.9183 15.7642 34.994 16.0399 35.1706C16.2905 35.3221 16.6163 35.423 16.917 35.5492H16.9922C17.293 35.6754 17.6188 35.625 17.8694 35.4483C18.12 35.2464 18.4458 35.1454 18.7716 35.1454L19.9496 35.2211C20.2002 35.2211 20.4508 35.1706 20.5761 34.9687H20.6262L21.0523 34.5649L21.1776 34.4387C21.3781 34.1863 21.6789 34.0854 21.9796 34.0601H23.1074C23.4082 34.0601 23.6838 33.8077 23.8092 33.5553C23.9345 33.3029 24.1851 33.101 24.4858 33.0505L24.9871 32.9496C25.1876 32.9496 25.363 32.7729 25.4382 32.5457C25.5134 32.2934 25.6387 32.0914 25.8141 31.94L26.2151 31.5362C26.4657 31.2838 26.5911 31.0314 26.6412 30.7285L26.5911 30.7539Z" fill="#21DB7E"/>
</svg>
