<svg width="22" height="14" viewBox="0 0 22 14" fill="none" xmlns="http://www.w3.org/2000/svg">
<path d="M0.132119 1.20001L5.8667 7.27275L0.273565 13.2C0.104263 12.8917 3.39467e-05 12.5383 3.39467e-05 12.1566V1.93372C3.39467e-05 1.67464 0.0504361 1.42912 0.132119 1.20001Z" fill="white"/>
<path d="M1.1993 0H20.9006C21.2989 0 21.6691 0.0819237 22 0.214234L11.5398 8.22564C11.2363 8.45811 10.7092 8.45811 10.411 8.22564L4.29153e-06 0.255747C0.354085 0.0973503 0.760373 0 1.1993 0Z" fill="white"/>
<path d="M21.8359 1.20001C21.9403 1.45381 22 1.73289 22 2.02715V12.1789C22 12.5518 21.8995 12.8972 21.7365 13.2L16.1333 7.25057L21.8359 1.20001Z" fill="white"/>
<path d="M7.4347 8.46248L9.41198 9.9999C10.2426 10.6369 11.5882 10.6473 12.4324 9.9999L14.4903 8.39999L20.5333 13.0841C20.2937 13.1566 20.0353 13.2 19.7631 13.2H2.21886C1.95323 13.2 1.70139 13.1576 1.46666 13.0885L7.4347 8.46248Z" fill="white"/>
</svg>
