<svg width="25" height="25" viewBox="0 0 25 25" fill="none" xmlns="http://www.w3.org/2000/svg">
<path d="M2.12618 7.30167L7.6001 13.8888L2.2612 20.3182C2.09959 19.9838 2.0001 19.6004 2.0001 19.1864V8.09753C2.0001 7.8165 2.04821 7.55019 2.12618 7.30167Z" fill="white"/>
<path d="M3.14478 6H21.9505C22.3308 6 22.6842 6.08886 23 6.23238L13.0152 14.9224C12.7256 15.1746 12.2224 15.1746 11.9378 14.9224L2 6.27741C2.33799 6.1056 2.72581 6 3.14478 6Z" fill="white"/>
<path d="M22.8433 7.30167C22.943 7.57696 23 7.87969 23 8.19887V19.2106C23 19.6151 22.904 19.9897 22.7485 20.3182L17.4 13.8648L22.8433 7.30167Z" fill="white"/>
<path d="M9.09649 15.1794L10.9839 16.847C11.7767 17.5379 13.0612 17.5492 13.8671 16.847L15.8314 15.1116L21.5997 20.1925C21.371 20.2711 21.1244 20.3182 20.8645 20.3182H4.11774C3.86418 20.3182 3.62379 20.2722 3.39973 20.1972L9.09649 15.1794Z" fill="white"/>
</svg>
