<svg width="25" height="25" viewBox="0 0 25 25" fill="none" xmlns="http://www.w3.org/2000/svg">
<path d="M19.25 3C20.283 3 21.1662 3.36675 21.8997 4.10026C22.6332 4.83377 23 5.71701 23 6.75V19.25C23 20.283 22.6332 21.1662 21.8997 21.8997C21.1662 22.6332 20.283 23 19.25 23H16.8021V15.2526H19.3932L19.7839 12.2318H16.8021V10.3047C16.8021 9.81858 16.9041 9.45399 17.1081 9.21094C17.3121 8.96788 17.7092 8.84635 18.2995 8.84635L19.888 8.83333V6.13802C19.3411 6.0599 18.5686 6.02083 17.5703 6.02083C16.3898 6.02083 15.4457 6.36806 14.7383 7.0625C14.0308 7.75694 13.6771 8.73785 13.6771 10.0052V12.2318H11.0729V15.2526H13.6771V23H6.75C5.71701 23 4.83377 22.6332 4.10026 21.8997C3.36675 21.1662 3 20.283 3 19.25V6.75C3 5.71701 3.36675 4.83377 4.10026 4.10026C4.83377 3.36675 5.71701 3 6.75 3H19.25Z" fill="white"/>
</svg>
