<svg width="60" height="60" viewBox="0 0 60 60" fill="none" xmlns="http://www.w3.org/2000/svg">
<path d="M58.4256 26.2041L33.7959 1.5744C32.7514 0.524802 31.3757 0 30 0C28.6243 0 27.2487 0.524802 26.2041 1.5744L21.3332 6.4453L27.3608 12.4728C29.3631 11.2959 31.9718 11.5506 33.6889 13.2677C35.4059 14.9847 35.6556 17.5934 34.4786 19.5907L40.4042 25.5163C42.4066 24.3393 45.0154 24.5941 46.7324 26.3111C48.7704 28.3492 48.7704 31.6508 46.7324 33.6889C44.6944 35.7269 41.3927 35.7269 39.3547 33.6889C37.6376 31.9718 37.3828 29.3631 38.5598 27.3608L32.6342 21.4351C32.2112 21.6848 31.768 21.8682 31.3044 21.9854V38.0096C33.5514 38.5903 35.2175 40.6131 35.2175 43.0434C35.2175 45.9273 32.8838 48.2609 30 48.2609C27.1162 48.2609 24.7826 45.9273 24.7826 43.0434C24.7826 40.6131 26.4487 38.5903 28.6957 38.0096V21.9854C27.8243 21.7612 26.9939 21.3281 26.3111 20.6453C24.5941 18.9283 24.3445 16.3197 25.5215 14.3223L19.4888 8.2897L1.5744 26.2041C-0.5248 28.2982 -0.5248 31.7018 1.5744 33.7959L26.2041 58.4256C27.2487 59.4752 28.6243 60 30 60C31.3757 60 32.7514 59.4752 33.7959 58.4256L58.4256 33.7959C60.5248 31.7018 60.5248 28.2982 58.4256 26.2041Z" fill="#21DB7E"/>
</svg>
