<svg width="37" height="93" viewBox="0 0 37 93" fill="none" xmlns="http://www.w3.org/2000/svg">
<path d="M18.3303 73.3805C14.8658 73.3972 11.4113 72.9592 8.03563 72.0749C7.03216 71.818 6.0478 71.4725 5.09182 71.0417L7.47076 75.6561L8.40131 90.0733C8.40131 91.6912 12.9253 93 18.5029 93C24.0805 93 28.6044 91.6912 28.6044 90.0733L29.3419 75.4998L31.5923 71.0284C30.6283 71.4661 29.635 71.8161 28.6221 72.0749C25.2473 72.9591 21.7938 73.3971 18.3303 73.3805ZM31.6683 26.4676C27.3005 27.0842 22.9015 27.3739 18.5 27.3346C14.0985 27.3739 9.69955 27.0842 5.3317 26.4676C3.94436 26.2765 2.57381 25.9521 1.23487 25.4976C0.886302 25.3747 0.548214 25.2158 0.225389 25.0225L2.40546 47.818C2.5069 47.4258 2.62006 47.0338 2.74494 46.6418C2.99777 45.8405 3.29084 45.0564 3.62276 44.2933C3.95083 43.5459 4.31821 42.8213 4.72305 42.1239C5.10492 41.4642 5.52733 40.836 5.98721 40.2438C6.40377 39.7031 6.86427 39.2082 7.36254 38.7655C7.7996 38.3759 8.27844 38.0512 8.78765 37.7988C9.23798 37.5795 9.72283 37.4667 10.2128 37.4667C10.7681 37.4704 11.3121 37.6449 11.7871 37.9716C12.3642 38.387 12.8504 38.946 13.2093 39.606C13.3054 39.7586 13.3712 39.9332 13.4025 40.1176C13.4287 40.2787 13.4424 40.442 13.4433 40.6059C13.4584 40.9121 13.3777 41.2145 13.2152 41.4598C13.1523 41.5557 13.0707 41.6338 12.9768 41.6879C12.8828 41.7422 12.7792 41.7708 12.6737 41.7719C12.5686 41.766 12.4659 41.733 12.3737 41.6755C12.2814 41.618 12.202 41.5374 12.1412 41.4396C11.9323 41.1324 11.7483 40.8044 11.591 40.4597C11.4418 40.1297 11.2263 39.844 10.9619 39.6258C10.7417 39.4565 10.4816 39.3662 10.2157 39.3668C9.72622 39.3964 9.25771 39.6024 8.8783 39.9547C8.35306 40.4031 7.88008 40.9256 7.47076 41.5095C6.9745 42.2059 6.52742 42.9456 6.13352 43.722C5.7111 44.5439 5.33386 45.3949 5.00394 46.2699C4.68744 47.1036 4.42612 47.9631 4.22262 48.8411C4.04101 49.5825 3.94281 50.3471 3.93001 51.1165C3.93078 51.3476 3.94436 51.5786 3.97103 51.8077C3.99415 52.0296 4.04533 52.2466 4.12319 52.452C4.18778 52.6335 4.28784 52.7959 4.4158 52.9271C4.55223 53.0543 4.72506 53.1205 4.90158 53.1131C5.16644 53.0991 5.42451 53.0125 5.6536 52.8606C5.96378 52.6707 6.25778 52.4483 6.53142 52.1963C6.84885 51.9067 7.15164 51.5972 7.4387 51.2694C7.74302 50.9262 8.02576 50.5773 8.28723 50.223C8.5487 49.8686 8.78087 49.5298 8.98376 49.2065C9.15627 48.9389 9.30889 48.6554 9.44024 48.3594L10.2712 45.5358C10.3404 45.273 10.4793 45.0407 10.6693 44.8713C10.8163 44.749 10.9932 44.6816 11.1755 44.6786C11.26 44.6786 11.344 44.6944 11.4242 44.7251C11.5109 44.7577 11.5901 44.8119 11.6559 44.8837C11.7218 44.9556 11.7726 45.0433 11.8047 45.1404C11.8456 45.2611 11.8654 45.3898 11.8631 45.519C11.8645 45.8827 11.8341 46.2454 11.7725 46.602C11.714 46.9391 11.6377 47.2719 11.5442 47.5985C11.4526 47.9198 11.3501 48.2421 11.2369 48.5654C11.1237 48.8886 11.0135 49.2275 10.9062 49.5819C10.8536 49.7035 10.8105 49.8302 10.7775 49.9605C10.715 50.182 10.639 50.4489 10.5493 50.7611C10.4596 51.0733 10.362 51.4323 10.2567 51.8374L9.93481 53.05C9.8235 53.462 9.7182 53.8662 9.61877 54.2626C9.51918 54.6589 9.42852 55.0177 9.34651 55.3387L9.14471 56.1427C9.09198 56.3586 9.05683 56.4749 9.04511 56.5282C9.00888 56.6745 8.96078 56.8168 8.90174 56.9534C8.83683 57.1094 8.75944 57.2584 8.67064 57.3985C8.5877 57.5247 8.48919 57.6366 8.37803 57.7307C8.28445 57.8176 8.16806 57.8666 8.04734 57.8702C7.96748 57.8778 7.88732 57.862 7.81456 57.8241C7.74179 57.7863 7.67888 57.7277 7.63171 57.6542C7.52626 57.4076 7.48171 57.1333 7.50298 56.8603V56.6908C7.50021 56.6311 7.50021 56.5713 7.50298 56.5114C7.54091 56.2659 7.59764 56.0247 7.67272 55.7907C7.75658 55.4384 7.85417 55.0399 7.96533 54.5947C8.07648 54.1496 8.20136 53.6889 8.33995 53.2127C8.47454 52.7366 8.59541 52.3102 8.70271 51.9338C8.38682 52.3347 8.04442 52.7333 7.67565 53.1297C7.3186 53.5145 6.93919 53.872 6.54021 54.1993C6.17406 54.5014 5.78187 54.7607 5.36978 54.9734C5.01427 55.1633 4.62716 55.2652 4.23434 55.2724C3.85679 55.284 3.48386 55.1758 3.15749 54.9602C3.10183 54.9235 3.05219 54.8804 3.00239 54.8371L4.21676 69.2944C4.53281 70.1946 10.4849 72.4038 18.3361 72.4038C26.1874 72.4038 32.1453 70.1912 32.4555 69.2912L34.2113 52.1033L33.7927 52.5418C33.3413 53.0227 32.8685 53.4772 32.3764 53.9037C31.9757 54.2557 31.5396 54.5522 31.0772 54.7874C30.6485 54.9969 30.1861 55.1033 29.7195 55.0997C29.3461 55.1278 28.9756 55.0106 28.6688 54.7675C28.5472 54.6576 28.4501 54.5167 28.3855 54.3562C28.3209 54.1957 28.2907 54.0203 28.2973 53.8441V53.7543C28.2947 53.7201 28.2947 53.6855 28.2973 53.6512C28.3386 53.3557 28.4334 53.0729 28.5753 52.8208C28.7524 52.483 28.9479 52.158 29.1605 51.8475C29.3868 51.5107 29.6277 51.1697 29.8832 50.8244C30.1388 50.4787 30.3759 50.1521 30.5944 49.8443C30.7885 49.5734 30.9691 49.2906 31.1358 48.9972C31.2548 48.8143 31.3285 48.5987 31.3493 48.3727C31.3509 48.3292 31.3435 48.2858 31.3276 48.2459C31.312 48.2061 31.2883 48.1711 31.2587 48.1435C31.1719 48.0798 31.0689 48.0506 30.9659 48.0602C30.7094 48.0652 30.457 48.1368 30.2287 48.2697C29.9584 48.422 29.7058 48.6117 29.4765 48.8345C29.2181 49.0837 28.9765 49.3546 28.7538 49.645C28.5193 49.9488 28.2985 50.2659 28.0922 50.5951C27.8875 50.9228 27.7002 51.2551 27.5306 51.5916C27.3609 51.9283 27.2164 52.235 27.0974 52.5117L26.9452 52.8838C26.879 53.0433 26.8077 53.2239 26.7316 53.4254C26.6556 53.6269 26.5737 53.8327 26.4858 54.0432C26.4 54.2647 26.321 54.4651 26.2489 54.6445L26.0557 55.1495C25.9991 55.298 25.959 55.3998 25.9358 55.4551C25.9122 55.5104 25.8635 55.6467 25.7893 55.8637C25.7212 56.063 25.6421 56.2977 25.5524 56.568L25.2597 57.4151L24.9818 58.2555L24.7535 58.9532C24.689 59.1525 24.6452 59.2853 24.6277 59.3617C24.57 59.5632 24.4995 59.7598 24.4169 59.9496C24.342 60.1246 24.2486 60.2885 24.139 60.438C24.0389 60.5726 23.9179 60.6853 23.7819 60.7702C23.6438 60.8558 23.4887 60.8992 23.3313 60.8965C23.142 60.9057 22.9551 60.8451 22.7988 60.7237C22.7203 60.6395 22.6603 60.5354 22.6237 60.4199C22.5871 60.3046 22.5749 60.1811 22.588 60.0594C22.5883 59.8937 22.6061 59.7286 22.6406 59.5676C22.6768 59.3988 22.7219 59.2325 22.7754 59.0694C22.8279 58.9034 22.8836 58.7372 22.9422 58.5877C23.0006 58.4382 23.0504 58.2822 23.0972 58.1358C23.4191 57.3342 23.7469 56.5314 24.0805 55.7275C24.414 54.9235 24.734 54.1263 25.0402 53.3357C25.1047 53.1695 25.1632 53.0035 25.2246 52.8473L25.1691 52.9105C24.8006 53.313 24.4095 53.688 23.9985 54.0333C23.6428 54.3376 23.2593 54.5972 22.8543 54.8074C22.5088 54.9912 22.1328 55.0896 21.7512 55.0963C21.5411 55.1037 21.3324 55.0583 21.1395 54.9635C20.9846 54.883 20.8497 54.7595 20.7474 54.6046C20.6449 54.4428 20.5731 54.2584 20.5367 54.0632C20.5367 53.9933 20.5133 53.9171 20.5045 53.8441C20.3992 53.9371 20.2939 54.0266 20.1884 54.113C19.8462 54.3912 19.4805 54.6304 19.0969 54.8274C18.7949 54.9921 18.4662 55.0837 18.1312 55.0963C18.001 55.1005 17.8715 55.0731 17.7514 55.0159C17.6313 54.9585 17.5234 54.8728 17.4347 54.7641C17.2289 54.4455 17.1339 54.0513 17.1685 53.6579C17.1757 53.2247 17.2238 52.7938 17.312 52.3722C17.1418 52.7079 16.946 53.026 16.7266 53.3223C16.4903 53.6467 16.2234 53.9408 15.9307 54.1993C15.6262 54.467 15.2892 54.6829 14.9298 54.8405C14.5452 55.0075 14.1362 55.0909 13.7244 55.0864C13.5328 55.0875 13.3417 55.0596 13.1566 55.0033C12.9802 54.9498 12.817 54.8509 12.6796 54.7142C12.5334 54.5633 12.4203 54.3754 12.3489 54.1661C12.2581 53.8913 12.2154 53.5992 12.2231 53.3057C12.2231 53.3057 12.2231 53.1762 12.2583 52.9403C12.3102 52.5625 12.3865 52.1893 12.4864 51.8241C12.6152 51.3149 12.8103 50.6504 13.0718 49.831C13.3331 49.0116 13.7116 48.0305 14.2071 46.8878C14.2987 46.6276 14.4479 46.3987 14.6403 46.2233C14.7944 46.0944 14.9811 46.0245 15.1728 46.024C15.261 46.0251 15.3485 46.0395 15.4332 46.0671C15.523 46.0952 15.6081 46.1403 15.6849 46.2001C15.7615 46.2598 15.8254 46.3382 15.8722 46.4293C15.9225 46.5304 15.9468 46.6456 15.9424 46.7615C15.943 46.8389 15.9342 46.916 15.9162 46.9906C15.8685 47.1763 15.8038 47.3555 15.723 47.5255C15.6254 47.747 15.5102 47.9995 15.3777 48.283C15.2451 48.5665 15.1065 48.8731 14.9622 49.2032C14.8159 49.5309 14.6802 49.8708 14.5555 50.223C14.4305 50.5747 14.323 50.9339 14.2336 51.2994C14.1466 51.6458 14.0956 52.0025 14.0813 52.3624C14.0805 52.5008 14.1118 52.6372 14.1721 52.7577C14.2009 52.8156 14.2439 52.8634 14.2957 52.8951C14.3474 52.9269 14.4059 52.9413 14.4647 52.937C14.8655 52.932 15.2545 52.7806 15.5736 52.5053C15.9407 52.1992 16.2687 51.837 16.5483 51.4289C16.8495 50.9935 17.1196 50.5314 17.3558 50.047C17.5977 49.5552 17.7987 49.1046 17.9587 48.695C18.0737 48.4104 18.1715 48.1174 18.2512 47.818C18.3354 47.5243 18.4331 47.236 18.5439 46.9542C18.6307 46.7147 18.7482 46.4909 18.892 46.2898C18.9508 46.2058 19.0256 46.1381 19.1108 46.0921C19.1959 46.0459 19.2893 46.0228 19.3838 46.024C19.4819 46.02 19.5795 46.0428 19.6681 46.091C19.7569 46.1389 19.8338 46.2105 19.8929 46.2996C20.0202 46.4906 20.0862 46.7249 20.0802 46.9641C20.069 47.1684 20.0284 47.3693 19.9603 47.5587C19.8803 47.8113 19.7828 48.0992 19.6675 48.4225C19.5525 48.7458 19.4198 49.0924 19.2696 49.4622C19.1271 49.8321 18.9946 50.2064 18.8717 50.585C18.757 50.9511 18.6594 51.3238 18.5789 51.7013C18.5025 52.0332 18.4621 52.3747 18.459 52.7178C18.4525 52.7775 18.4582 52.838 18.476 52.8947C18.4935 52.9514 18.5225 53.0026 18.5604 53.0446C18.5984 53.0864 18.6445 53.1176 18.695 53.1359C18.7453 53.1541 18.7988 53.1588 18.8512 53.1497C19.0912 53.1332 19.3254 53.0596 19.5388 52.9337C19.845 52.7671 20.1345 52.5633 20.4021 52.3257C20.4783 52.2593 20.5543 52.1928 20.6273 52.1232C20.7032 51.7539 20.8009 51.391 20.9201 51.0369C21.1289 50.4124 21.3405 49.7911 21.5551 49.1731L22.1403 47.479L24.8472 39.7289C24.924 39.4598 25.076 39.2265 25.2803 39.0644C25.4438 38.9426 25.6347 38.8758 25.8303 38.8717C26.0136 38.8716 26.1914 38.943 26.3337 39.0745C26.4149 39.1571 26.4778 39.2603 26.5176 39.3758C26.5572 39.4913 26.5723 39.6156 26.562 39.7389C26.5598 39.8944 26.5341 40.0483 26.4858 40.194C26.4293 40.3703 26.3648 40.5432 26.2927 40.7122C26.1445 41.0887 25.9669 41.5493 25.7602 42.0942C25.5533 42.6388 25.3328 43.2314 25.0988 43.8714C24.8628 44.5114 24.6218 45.1759 24.3759 45.8647L23.6532 47.8876C23.4191 48.5521 23.1987 49.1744 22.9918 49.7546L22.4593 51.2861C22.3853 51.4971 22.321 51.712 22.2661 51.9304C22.2072 52.1457 22.1758 52.3694 22.1724 52.5949C22.1681 52.6947 22.1863 52.7941 22.2251 52.8838C22.2469 52.9221 22.2775 52.9527 22.3136 52.972C22.3499 52.9914 22.3902 52.9988 22.43 52.9936C22.5936 52.9815 22.7532 52.9305 22.8982 52.844C23.1093 52.7293 23.3128 52.5972 23.5069 52.4487C23.7255 52.2849 23.9516 52.0966 24.1858 51.8839C24.4198 51.6714 24.654 51.4499 24.8881 51.2196C25.1202 50.9981 25.3425 50.77 25.5553 50.5353C25.7679 50.3006 25.9572 50.0901 26.1231 49.9041C26.1621 49.8593 26.2089 49.8241 26.2606 49.801C26.36 49.4689 26.4536 49.1367 26.5327 48.8044C26.5796 48.6606 26.6448 48.4557 26.7286 48.19C26.8147 47.9243 26.9123 47.6638 27.0214 47.4093C27.119 47.1726 27.2408 46.9495 27.3842 46.7449C27.4352 46.6679 27.501 46.6047 27.5764 46.5603C27.6519 46.5161 27.7354 46.4917 27.8201 46.489C27.9131 46.4794 28.0068 46.491 28.0958 46.523C28.1847 46.5549 28.2671 46.6065 28.3381 46.675C28.3956 46.7499 28.4393 46.8368 28.4669 46.9309C28.4946 47.0249 28.5056 47.1244 28.4992 47.2232C28.4971 47.3 28.4912 47.3766 28.4815 47.4523C28.4815 47.5554 28.4553 47.6684 28.4377 47.7847C28.42 47.9009 28.3997 48.0105 28.3791 48.1168C28.365 48.1949 28.3454 48.2715 28.3206 48.3461C28.541 48.0736 28.7791 47.8034 29.0347 47.5356C29.2847 47.2724 29.5508 47.0292 29.8305 46.808C30.0935 46.5992 30.375 46.4221 30.6704 46.2798C30.9414 46.148 31.2329 46.079 31.5279 46.0772C31.726 46.0775 31.9231 46.1099 32.1131 46.1734C32.2987 46.2333 32.4738 46.3288 32.6311 46.4559C32.7832 46.5798 32.91 46.7395 33.0028 46.9243C33.1024 47.127 33.1518 47.3566 33.1461 47.5887C33.139 47.9533 33.0643 48.3121 32.9266 48.6418C32.7714 49.033 32.5874 49.4084 32.3764 49.7646C32.1561 50.141 31.9181 50.5075 31.6624 50.8642C31.4068 51.2207 31.1669 51.5451 30.9426 51.8374L30.3778 52.5816C30.2726 52.6983 30.1917 52.8403 30.1408 52.9968C30.1396 53.0847 30.169 53.1693 30.2227 53.2327C30.2988 53.3011 30.3953 53.3332 30.492 53.3223C30.6525 53.2989 30.8059 53.233 30.9397 53.1297C31.2274 52.9292 31.503 52.7073 31.7648 52.4652C32.12 52.1487 32.5696 51.7244 33.1139 51.1931C33.4884 50.8276 33.9245 50.3924 34.4191 49.8975L36.7835 25.049C36.4606 25.2425 36.1226 25.4015 35.7739 25.5241C34.4314 25.9702 33.058 26.2858 31.6683 26.4676ZM18.5 20.5778C8.28137 20.5778 0 21.8732 0 23.4744C0 25.0757 8.25794 26.3647 18.5 26.3647C28.7419 26.3647 37 25.069 37 23.4679C37 21.8666 28.7069 20.5778 18.5 20.5778ZM25.886 24.3216C25.886 24.697 24.9029 24.9859 23.6883 24.9859C22.474 24.9859 21.4907 24.6803 21.4907 24.3216C21.4907 23.9628 22.474 23.6571 23.6883 23.6571C24.9029 23.6571 25.8772 23.9395 25.8772 24.3149L25.886 24.3216Z" fill="#21DB7E"/>
<path d="M22.5439 23.8977C22.516 23.8908 22.4907 23.8839 22.4677 23.8771L25.1704 12.033L34.8012 0.504149C34.8331 0.509347 34.879 0.520467 34.9393 0.543004C35.1437 0.619483 35.4253 0.794731 35.7136 1.08699C36.0119 1.38942 36.2405 1.70779 36.3689 1.9612C36.4207 2.06353 36.4494 2.14196 36.4632 2.19509L27.3457 13.1221L27.2671 13.2163L27.241 13.3361L24.9557 23.8441C24.9143 23.86 24.8566 23.8787 24.7801 23.8977C24.5112 23.9647 24.1147 24.0112 23.662 24.0112C23.2094 24.0112 22.8129 23.9647 22.5439 23.8977ZM36.4736 2.25559C36.4734 2.25547 36.4732 2.25298 36.4734 2.2485C36.4738 2.25347 36.4737 2.25572 36.4736 2.25559ZM25.0402 23.8026C25.0406 23.8026 25.0374 23.8052 25.0292 23.8102C25.0357 23.805 25.0398 23.8025 25.0402 23.8026ZM22.2947 23.8102C22.2865 23.8052 22.2833 23.8026 22.2837 23.8026C22.2842 23.8025 22.2883 23.805 22.2947 23.8102Z" fill="#21DB7E" stroke="#21DB7E"/>
</svg>
