<svg width="60" height="60" viewBox="0 0 60 60" fill="none" xmlns="http://www.w3.org/2000/svg">
<path d="M0.00651823 1.9862L4.46072 51.8044C4.52762 52.5525 5.10682 53.1904 5.92502 53.4173L29.363 59.9139C29.7775 60.0287 30.2225 60.0287 30.6369 59.9139L54.0749 53.4173C54.8931 53.1904 55.4724 52.5525 55.5392 51.8044L59.9935 1.9862C60.0892 0.915198 59.121 0 57.8923 0H2.10792C0.879117 0 -0.0890818 0.915198 0.00651823 1.9862ZM48.571 17.4431H19.5422L20.4183 24.506H47.9397L46.1392 44.641L30.0001 49.1145L13.8608 44.641L12.9203 34.1216H21.3914V39.2815L30.2264 41.3545L39.0086 39.2815L39.69 31.0581H12.6463L10.8508 10.9759H49.149L48.571 17.4431Z" fill="#21DB7E"/>
</svg>
