<svg width="25" height="25" viewBox="0 0 25 25" fill="none" xmlns="http://www.w3.org/2000/svg">
<path d="M12.9973 9.66525C11.1611 9.66525 9.66262 11.1638 9.66262 13C9.66262 14.8362 11.1611 16.3348 12.9973 16.3348C14.8335 16.3348 16.332 14.8362 16.332 13C16.332 11.1638 14.8335 9.66525 12.9973 9.66525ZM22.9989 13C22.9989 11.6191 23.0114 10.2506 22.9338 8.87221C22.8563 7.27113 22.4911 5.85017 21.3203 4.67938C20.147 3.50609 18.7286 3.14334 17.1275 3.06579C15.7466 2.98824 14.3782 3.00074 12.9998 3.00074C11.6189 3.00074 10.2505 2.98824 8.8721 3.06579C7.27105 3.14334 5.85012 3.50859 4.67935 4.67938C3.50608 5.85267 3.14334 7.27113 3.06579 8.87221C2.98824 10.2531 3.00074 11.6216 3.00074 13C3.00074 14.3784 2.98824 15.7494 3.06579 17.1278C3.14334 18.7289 3.50858 20.1498 4.67935 21.3206C5.85262 22.4939 7.27105 22.8567 8.8721 22.9342C10.253 23.0118 11.6214 22.9993 12.9998 22.9993C14.3807 22.9993 15.7491 23.0118 17.1275 22.9342C18.7286 22.8567 20.1495 22.4914 21.3203 21.3206C22.4936 20.1473 22.8563 18.7289 22.9338 17.1278C23.0139 15.7494 22.9989 14.3809 22.9989 13ZM12.9973 18.131C10.1579 18.131 7.86644 15.8394 7.86644 13C7.86644 10.1606 10.1579 7.86903 12.9973 7.86903C15.8367 7.86903 18.1282 10.1606 18.1282 13C18.1282 15.8394 15.8367 18.131 12.9973 18.131ZM18.3383 8.8572C17.6754 8.8572 17.14 8.32184 17.14 7.65889C17.14 6.99594 17.6754 6.46058 18.3383 6.46058C19.0013 6.46058 19.5366 6.99594 19.5366 7.65889C19.5368 7.81631 19.5059 7.97222 19.4458 8.1177C19.3856 8.26317 19.2974 8.39535 19.1861 8.50666C19.0748 8.61798 18.9426 8.70624 18.7971 8.76639C18.6516 8.82654 18.4957 8.8574 18.3383 8.8572Z" fill="white"/>
</svg>
