<svg width="18" height="18" viewBox="0 0 18 18" fill="none" xmlns="http://www.w3.org/2000/svg">
<path fill-rule="evenodd" clip-rule="evenodd" d="M0 9C0 4.02945 4.02945 0 9 0C13.9706 0 18 4.02945 18 9C18 13.9706 13.9706 18 9 18C4.02945 18 0 13.9706 0 9ZM9.00045 4.2C7.69684 4.2 7.53323 4.2057 7.02124 4.22899C6.51023 4.25239 6.16144 4.33331 5.85623 4.452C5.54051 4.57459 5.27273 4.73861 5.00591 5.0055C4.73891 5.27231 4.57489 5.5401 4.45189 5.8557C4.3329 6.16103 4.2519 6.50993 4.22891 7.02071C4.206 7.53274 4.2 7.69643 4.2 9.00004C4.2 10.3037 4.20581 10.4668 4.22899 10.9788C4.2525 11.4898 4.33339 11.8386 4.452 12.1438C4.5747 12.4595 4.73869 12.7273 5.00561 12.9941C5.27231 13.2611 5.5401 13.4255 5.85562 13.5481C6.16103 13.6668 6.50993 13.7477 7.02083 13.7711C7.53285 13.7944 7.69635 13.8001 8.99985 13.8001C10.3036 13.8001 10.4667 13.7944 10.9787 13.7711C11.4897 13.7477 11.8389 13.6668 12.1443 13.5481C12.4599 13.4255 12.7273 13.2611 12.994 12.9941C13.261 12.7273 13.425 12.4595 13.548 12.1439C13.666 11.8386 13.747 11.4897 13.771 10.9789C13.794 10.4669 13.8 10.3037 13.8 9.00004C13.8 7.69643 13.794 7.53285 13.771 7.02083C13.747 6.50981 13.666 6.16103 13.548 5.85581C13.425 5.5401 13.261 5.27231 12.994 5.0055C12.727 4.7385 12.46 4.57451 12.144 4.452C11.838 4.33331 11.489 4.25239 10.978 4.22899C10.466 4.2057 10.303 4.2 8.99895 4.2H9.00045Z" fill="white"/>
<path fill-rule="evenodd" clip-rule="evenodd" d="M8.56972 5.06501C8.69752 5.06482 8.84013 5.06501 9.00033 5.06501C10.2819 5.06501 10.4338 5.06962 10.9399 5.09261C11.4079 5.11402 11.662 5.19221 11.8312 5.25791C12.0552 5.34491 12.2149 5.4489 12.3828 5.6169C12.5508 5.7849 12.6548 5.94491 12.742 6.16894C12.8077 6.33791 12.886 6.59194 12.9073 7.05994C12.9303 7.56592 12.9353 7.71795 12.9353 8.99895C12.9353 10.2799 12.9303 10.432 12.9073 10.938C12.8859 11.406 12.8077 11.66 12.742 11.829C12.655 12.053 12.5508 12.2125 12.3828 12.3804C12.2148 12.5484 12.0553 12.6524 11.8312 12.7394C11.6622 12.8054 11.4079 12.8834 10.9399 12.9048C10.434 12.9278 10.2819 12.9328 9.00033 12.9328C7.71862 12.9328 7.56671 12.9278 7.06072 12.9048C6.59272 12.8832 6.3387 12.805 6.16942 12.7393C5.9454 12.6523 5.78538 12.5483 5.61738 12.3803C5.44938 12.2123 5.34539 12.0527 5.25821 11.8286C5.19251 11.6596 5.11421 11.4056 5.09291 10.9376C5.06988 10.4316 5.06531 10.2796 5.06531 8.99775C5.06531 7.71592 5.06988 7.56472 5.09291 7.05874C5.11428 6.59074 5.19251 6.33671 5.25821 6.16751C5.34521 5.94352 5.44938 5.78351 5.61738 5.61551C5.78538 5.44751 5.9454 5.34352 6.16942 5.2563C6.33862 5.1903 6.59272 5.1123 7.06072 5.09081C7.50352 5.07082 7.67512 5.06482 8.56972 5.06381V5.06501ZM11.5626 5.862C11.2446 5.862 10.9866 6.11974 10.9866 6.43781C10.9866 6.75581 11.2446 7.01381 11.5626 7.01381C11.8806 7.01381 12.1386 6.75581 12.1386 6.43781C12.1386 6.11981 11.8806 5.862 11.5626 5.862ZM9.00033 6.53501C7.63901 6.53501 6.53531 7.63875 6.53531 9.00004C6.53531 10.3614 7.63901 11.4646 9.00033 11.4646C10.3617 11.4646 11.4649 10.3614 11.4649 9.00004C11.4649 7.63875 10.3617 6.53501 9.00033 6.53501Z" fill="white"/>
<path fill-rule="evenodd" clip-rule="evenodd" d="M9.00053 7.40002C9.88414 7.40002 10.6005 8.11635 10.6005 9.00004C10.6005 9.88365 9.88414 10.6 9.00053 10.6C8.1168 10.6 7.40051 9.88365 7.40051 9.00004C7.40051 8.11635 8.1168 7.40002 9.00053 7.40002Z" fill="white"/>
</svg>
