<svg width="60" height="60" viewBox="0 0 60 60" fill="none" xmlns="http://www.w3.org/2000/svg">
<path d="M59.6173 0.423901C59.3397 0.153901 58.9497 0 58.5392 0H1.46083C1.05033 0 0.660336 0.153901 0.382736 0.423901C0.105236 0.693901 -0.0306673 1.0565 0.0058327 1.4204L5.14803 52.847C5.20213 53.3843 5.62134 53.837 6.20284 53.9857L29.591 59.9504C29.721 59.983 29.8569 60 29.9913 60C30.1257 60 30.2615 59.983 30.3915 59.9504L53.8002 53.9857C54.3816 53.837 54.8009 53.3843 54.8549 52.847L59.9942 1.4204C60.0307 1.0565 59.8934 0.693901 59.6173 0.423901ZM11.009 35.2226L21.2349 37.7557V11.7391H27.0783V45.6522L11.009 41.6726V35.2226ZM49.07 26.087L47.5302 42.0652L32.9217 45.6522V39.6509L42.7825 37.2313L43.1477 32.34L32.9217 33.913V11.7391H50.4519L49.9479 16.9565H38.7651V27.3913L49.07 26.087Z" fill="#21DB7E"/>
</svg>
