<svg width="58" height="64" viewBox="0 0 58 64" fill="none" xmlns="http://www.w3.org/2000/svg">
<path d="M26.3709 0.683696C27.974 -0.22589 30.0179 -0.229905 31.5809 0.683696L55.5151 14.203C57.012 15.0463 58.0139 16.7189 57.9999 18.4477V45.5546C58.0099 47.3557 56.9098 49.0644 55.3307 49.8917L31.5248 63.3487C30.7106 63.7996 29.7907 64.0238 28.8608 63.998C27.9308 63.9722 27.0248 63.6974 26.2366 63.2021L19.0929 59.0658C18.6059 58.7747 18.0589 58.5438 17.7142 58.0719C18.0188 57.6623 18.5598 57.6101 19.0007 57.4294C19.9946 57.1121 20.9044 56.6262 21.8181 56.1122C22.0486 55.9516 22.3311 56.0118 22.5515 56.1564L28.6433 59.6863C29.0781 59.9373 29.519 59.606 29.8917 59.3951L53.2667 46.177C53.5553 46.0365 53.7156 45.7313 53.6916 45.414V18.5682C53.7236 18.2068 53.5172 17.8775 53.1906 17.7309L29.4448 4.33208C29.308 4.23724 29.1456 4.18627 28.9792 4.18591C28.8128 4.18555 28.6503 4.23582 28.513 4.33007L4.80132 17.757C4.4807 17.9036 4.26028 18.2289 4.30036 18.5903V45.4361C4.2723 45.7534 4.44063 46.0525 4.73119 46.1891L11.0674 49.7732C12.2577 50.4157 13.7185 50.7772 15.029 50.3053C15.6025 50.0887 16.0962 49.7017 16.444 49.196C16.7918 48.6903 16.977 48.0903 16.9748 47.4761L16.9808 20.791C16.9527 20.3954 17.3255 20.0681 17.7082 20.1083H20.7541C21.1548 20.0982 21.4694 20.5239 21.4153 20.9215L21.4093 47.7753C21.4113 50.1607 20.4335 52.755 18.2312 53.9256C15.518 55.3311 12.1635 55.0359 9.48235 53.6846L2.66921 49.9097C1.06612 49.1066 -0.00994993 47.3717 6.93768e-05 45.5726V18.4658C0.00673488 17.5848 0.248448 16.7216 0.700152 15.9657C1.15186 15.2098 1.79711 14.5887 2.56902 14.1668L26.3709 0.683696ZM33.2722 19.4738C36.7329 19.273 40.438 19.3412 43.552 21.05C45.9627 22.3591 47.2992 25.106 47.3433 27.7926C47.2752 28.154 46.8985 28.3548 46.5538 28.3287C45.5519 28.3267 44.5459 28.3427 43.54 28.3226C43.1132 28.3387 42.8667 27.9452 42.8126 27.5677C42.524 26.2826 41.8247 25.0116 40.6184 24.3911C38.7668 23.4615 36.6186 23.5077 34.5988 23.5277C33.1239 23.6081 31.5389 23.7346 30.2904 24.602C29.3286 25.2606 29.04 26.6099 29.3827 27.658C29.7033 28.4271 30.591 28.674 31.3144 28.9029C35.4865 29.9952 39.905 29.9069 43.9989 31.3265C45.6921 31.9128 47.3493 33.0533 47.9305 34.8303C48.6879 37.2117 48.3573 40.0589 46.668 41.9704C45.2974 43.5447 43.3015 44.3799 41.3077 44.8659C38.6566 45.4582 35.9073 45.4722 33.2161 45.2072C30.6852 44.9181 28.0521 44.2514 26.0984 42.5246C24.4272 41.0709 23.6136 38.806 23.6937 36.6214C23.7138 36.2519 24.0805 35.9949 24.4352 36.025H27.441C27.8457 35.9969 28.1423 36.3463 28.1623 36.7278C28.3487 37.9325 28.8076 39.2377 29.8736 39.9404C31.9296 41.2697 34.5086 41.1773 36.8611 41.2155C38.8109 41.1291 40.9991 41.103 42.5922 39.8099C43.4338 39.073 43.6803 37.8422 43.4538 36.782C43.2073 35.8865 42.2515 35.4708 41.45 35.1757C37.332 33.8705 32.8634 34.3444 28.7855 32.8666C27.1304 32.2802 25.5293 31.1719 24.894 29.4672C24.0063 27.0577 24.4131 24.0719 26.2827 22.2246C28.0862 20.3874 30.7313 19.6786 33.2361 19.4256L33.2722 19.4738Z" fill="#21DB7E"/>
</svg>
