<svg width="10" height="17" viewBox="0 0 10 17" fill="none" xmlns="http://www.w3.org/2000/svg">
<path d="M0.749311 0.976455H9.18457C9.45234 0.976455 9.70689 1.03583 9.93609 1.1414C9.867 0.81876 9.68926 0.529496 9.4324 0.32179C9.17554 0.114096 8.8551 0.000516818 8.52452 0H1.41047C0.718457 0 0.138843 0.490427 0 1.1414C0.228099 1.03583 0.481543 0.976455 0.749311 0.976455ZM0.781267 12.6598H9.21543C9.58678 12.6598 9.89972 12.4124 9.9989 12.0737V2.43894C9.94964 2.26984 9.84672 2.12123 9.70568 2.01537C9.56463 1.90951 9.39306 1.8521 9.21653 1.85175H0.780165C0.604441 1.85219 0.433554 1.90927 0.29297 2.01449C0.152386 2.1197 0.0496309 2.26742 0 2.43564V12.0759C0.049686 12.2443 0.152606 12.3922 0.293411 12.4974C0.434215 12.6027 0.605355 12.6596 0.781267 12.6598ZM9.21543 14.0695H0.782369C0.502479 14.0695 0.236915 14.0047 0.00110185 13.8903V15.5595C0.00110185 16.3534 0.649036 17 1.44463 17H8.55647C9.35207 17 10 16.3534 10 15.5595V13.8903C9.75625 14.0086 9.4887 14.07 9.21763 14.0695H9.21543ZM6.30413 16.0224H3.69477C3.63051 16.0224 3.5669 16.0098 3.50754 15.9853C3.44818 15.9608 3.39424 15.9248 3.3488 15.8795C3.30338 15.8341 3.26734 15.7803 3.24275 15.721C3.21816 15.6618 3.20551 15.5983 3.20551 15.5342C3.20551 15.4701 3.21816 15.4067 3.24275 15.3474C3.26734 15.2881 3.30338 15.2344 3.3488 15.1889C3.39424 15.1436 3.44818 15.1077 3.50754 15.0832C3.5669 15.0586 3.63051 15.046 3.69477 15.046H6.30303C6.36728 15.046 6.4309 15.0586 6.49026 15.0832C6.54962 15.1077 6.60356 15.1436 6.64904 15.1889C6.69444 15.2344 6.73047 15.2881 6.75504 15.3474C6.77961 15.4067 6.79229 15.4701 6.79229 15.5342C6.79229 15.5983 6.77961 15.6618 6.75504 15.721C6.73047 15.7803 6.69444 15.8341 6.64904 15.8795C6.60356 15.9248 6.54962 15.9608 6.49026 15.9853C6.4309 16.0098 6.36728 16.0224 6.30303 16.0224H6.30413Z" fill="white"/>
</svg>
