<svg width="334" height="475" viewBox="0 0 334 475" fill="none" xmlns="http://www.w3.org/2000/svg">
<path d="M112.326 193.998L112.582 213.233L93.3819 213.49L79.9793 224.985L80.356 253.271L50.1625 276.307" stroke="#21DB7E"/>
<path d="M62.7823 290.851L96.2888 262.112L95.9272 234.957" stroke="#21DB7E" stroke-width="2"/>
<path d="M87.9614 315.41L87.8258 305.227L78.7149 299.691L59.7254 315.788" stroke="#21DB7E"/>
<path d="M182.184 10.8711L184.836 210.005L214.563 236.767L215.513 308.048L231.536 323.676L231.973 356.488L245.692 368.753" stroke="#21DB7E"/>
<path d="M168.631 11.0526L171.69 240.735L182.051 255.308L182.865 316.406L196.644 333.196L197.292 381.848L240.753 422.006" stroke="#21DB7E" stroke-width="2"/>
<path d="M141.524 11.4146L144.176 210.548L144.96 269.383L112.643 302.633L113.035 332.05L113.366 356.942" stroke="#21DB7E"/>
<path d="M127.971 11.5961L130.623 210.73L131.241 257.119L96.6805 291.53L97.0572 319.816L80.221 327.962" stroke="#21DB7E" stroke-width="2"/>
<path d="M118.951 12.8478L119.584 60.3683L119.84 79.6028L121.844 230.084L105.068 242.757L105.4 267.648L66.3063 300.989L53.8523 298.892" stroke="#21DB7E"/>
<path d="M317.938 329.007L306.857 319.101L243.912 319.942L244.29 348.272L255.371 358.178L255.87 395.646L268.848 411.011" stroke="#21DB7E"/>
<ellipse rx="12.425" ry="12.447" transform="matrix(-0.999911 0.0133637 -0.0133164 -0.999911 319.813 336.077)" fill="#21DB7E"/>
<ellipse rx="9.03633" ry="9.05233" transform="matrix(-0.999911 0.0133637 -0.0133164 -0.999911 238.463 250.027)" fill="#21DB7E"/>
<ellipse rx="9.03633" ry="9.05233" transform="matrix(-0.999911 0.0133637 -0.0133164 -0.999911 64.4387 245.563)" fill="#21DB7E"/>
<ellipse rx="12.425" ry="12.447" transform="matrix(-0.999911 0.0133637 -0.0133164 -0.999911 219.58 443.79)" fill="#21DB7E"/>
<path d="M218.33 434.754L218.089 416.651L200.906 398.774" stroke="#21DB7E"/>
<path d="M207.336 287.787L207.667 312.679L222.186 326.239L222.685 363.707L235.663 379.072" stroke="#21DB7E"/>
<ellipse rx="12.425" ry="12.447" transform="matrix(-0.999911 0.0133637 -0.0133164 -0.999911 239.127 384.684)" fill="#21DB7E"/>
<path d="M164.041 429.821L163.845 415.112L163.619 398.141L154.328 379.027L153.68 330.375L159.252 324.642L155.078 11.2333" stroke="#21DB7E"/>
<ellipse rx="9.03633" ry="9.05233" transform="matrix(0.999911 -0.0133637 -0.0133164 -0.999911 164.162 438.873)" fill="#21DB7E"/>
<path d="M266.056 418.273C265.968 411.674 271.236 406.255 277.821 406.167C284.405 406.079 289.816 411.356 289.904 417.954C289.992 424.552 284.723 429.971 278.139 430.059C271.554 430.147 266.144 424.871 266.056 418.273Z" stroke="#21DB7E"/>
<path d="M177.779 405.873C177.707 400.525 181.978 396.132 187.315 396.061C192.652 395.99 197.037 400.266 197.109 405.615C197.18 410.963 192.91 415.356 187.573 415.427C182.236 415.498 177.85 411.222 177.779 405.873Z" stroke="#21DB7E"/>
<path d="M268.343 250.759C268.272 245.411 272.542 241.019 277.879 240.947C283.216 240.876 287.602 245.152 287.673 250.501C287.744 255.85 283.474 260.242 278.137 260.313C272.8 260.385 268.414 256.108 268.343 250.759Z" stroke="#21DB7E"/>
<path d="M278.129 259.682L278.249 268.734L254.697 281.496L248.974 275.915L221.868 276.277L222.199 301.169L231.34 308.968" stroke="#21DB7E"/>
<path d="M29.1109 388.752L37.8643 380.496L88.8195 379.815L89.1249 402.749L80.3715 411.005L80.7755 441.336L70.6042 454.051" stroke="#21DB7E"/>
<ellipse rx="11.2954" ry="11.3154" transform="matrix(0.999911 -0.0133637 -0.0133164 -0.999911 23.5387 397.75)" fill="#21DB7E"/>
<ellipse rx="11.2954" ry="11.3154" transform="matrix(0.999911 -0.0133637 -0.0133164 -0.999911 122.628 373.792)" fill="#21DB7E"/>
<path d="M73.5783 460.452C73.4988 454.479 68.6006 449.703 62.6398 449.782C56.6791 449.862 51.9099 454.767 51.9894 460.741C52.069 466.714 56.9671 471.491 62.9279 471.411C68.8887 471.331 73.6579 466.426 73.5783 460.452Z" stroke="#21DB7E"/>
<path d="M129.9 448.383C129.82 442.41 124.922 437.633 118.961 437.713C113 437.793 108.231 442.698 108.311 448.672C108.39 454.645 113.288 459.422 119.249 459.342C125.21 459.262 129.979 454.357 129.9 448.383Z" stroke="#21DB7E"/>
<path d="M31.321 341.063C31.2414 335.09 26.3433 330.314 20.3825 330.393C14.4217 330.473 9.65253 335.378 9.73209 341.352C9.81164 347.325 14.7098 352.102 20.6706 352.022C26.6313 351.942 31.4005 347.037 31.321 341.063Z" stroke="#21DB7E"/>
<path d="M55.5959 297.736C55.5163 291.763 50.6182 286.986 44.6574 287.066C38.6966 287.146 33.9274 292.051 34.007 298.025C34.0865 303.998 38.9847 308.775 44.9455 308.695C50.9062 308.615 55.6754 303.71 55.5959 297.736Z" stroke="#21DB7E"/>
<path d="M282.635 306.018C282.597 303.169 284.871 300.83 287.713 300.792C290.555 300.754 292.891 303.032 292.929 305.881C292.967 308.73 290.692 311.069 287.851 311.107C285.009 311.145 282.673 308.867 282.635 306.018Z" stroke="#21DB7E"/>
<path d="M198.378 256.221C198.34 253.372 200.615 251.033 203.457 250.995C206.299 250.957 208.635 253.234 208.673 256.083C208.711 258.932 206.436 261.271 203.594 261.309C200.752 261.347 198.416 259.07 198.378 256.221Z" stroke="#21DB7E"/>
<path d="M107.119 189.542C107.081 186.693 109.356 184.354 112.198 184.316C115.039 184.278 117.376 186.555 117.413 189.404C117.451 192.254 115.177 194.592 112.335 194.63C109.493 194.668 107.157 192.391 107.119 189.542Z" stroke="#21DB7E"/>
<path d="M283.234 303.747L274.108 297.08L264.003 301.741L247.98 286.112L237.815 286.248L238.659 349.609L238.704 353.003L250.134 363.035" stroke="#21DB7E"/>
<path d="M272.44 388.765C272.402 385.916 274.677 383.577 277.519 383.539C280.361 383.501 282.697 385.778 282.735 388.628C282.773 391.477 280.498 393.816 277.656 393.854C274.814 393.892 272.478 391.614 272.44 388.765Z" stroke="#21DB7E"/>
<path d="M267.757 376.38C267.728 374.156 269.503 372.33 271.721 372.301C273.94 372.271 275.763 374.048 275.793 376.273C275.822 378.497 274.047 380.323 271.829 380.352C269.61 380.382 267.787 378.604 267.757 376.38Z" fill="#21DB7E" stroke="#21DB7E"/>
<path d="M269.486 374.093L263.763 368.512L263.537 351.54L269.094 344.676L268.853 326.573L289.183 326.301L289.303 335.353L293.881 339.818" stroke="#21DB7E"/>
<path d="M292.168 343.236C292.13 340.387 294.404 338.048 297.246 338.01C300.088 337.972 302.424 340.249 302.462 343.098C302.5 345.947 300.226 348.286 297.384 348.324C294.542 348.362 292.206 346.085 292.168 343.236Z" stroke="#21DB7E"/>
<path d="M68.7078 434.005C68.6829 432.138 67.152 430.646 65.2903 430.671C63.4287 430.696 61.9381 432.228 61.9629 434.095C61.9878 435.963 63.5187 437.454 65.3804 437.43C67.2421 437.405 68.7326 435.872 68.7078 434.005Z" fill="#21DB7E" stroke="#21DB7E"/>
<path d="M68.0545 432.236L73.6264 426.503L73.3702 407.269L81.9862 399.879L81.7796 384.362L50.4779 384.78L50.5855 392.862L47.2424 396.301" stroke="#21DB7E"/>
<path d="M47.9128 399.364C47.8808 396.961 45.9107 395.041 43.5143 395.073C41.118 395.105 39.1998 397.077 39.2318 399.48C39.2638 401.883 41.2338 403.803 43.6302 403.771C46.0265 403.739 47.9448 401.767 47.9128 399.364Z" stroke="#21DB7E"/>
<path d="M258.179 335.768C258.149 333.544 259.925 331.718 262.143 331.688C264.361 331.659 266.185 333.436 266.214 335.66C266.244 337.885 264.468 339.71 262.25 339.74C260.032 339.77 258.208 337.992 258.179 335.768Z" stroke="#21DB7E"/>
<path d="M273.07 388.757L265.164 388.862L260.571 383.266L260.088 347.06L250.963 340.392L250.752 324.551L262.046 324.401L262.167 333.452" stroke="#21DB7E"/>
<path d="M89.0189 357.267C88.9809 354.418 91.2555 352.079 94.0974 352.041C96.9394 352.003 99.2754 354.28 99.3134 357.13C99.3513 359.979 97.0767 362.318 94.2348 362.356C91.3929 362.394 89.0568 360.116 89.0189 357.267Z" fill="#21DB7E" stroke="#21DB7E"/>
<path d="M91.9677 361.754L86.4109 368.618L57.0454 369.011L56.8496 354.302L83.9561 353.94" stroke="#21DB7E"/>
<path d="M132.721 415.528C132.683 412.679 134.958 410.34 137.8 410.302C140.642 410.264 142.978 412.541 143.016 415.39C143.053 418.24 140.779 420.579 137.937 420.617C135.095 420.655 132.759 418.377 132.721 415.528Z" fill="#21DB7E" stroke="#21DB7E"/>
<path d="M131.576 329.539C131.538 326.69 133.813 324.351 136.655 324.313C139.496 324.275 141.833 326.552 141.871 329.401C141.908 332.251 139.634 334.59 136.792 334.628C133.95 334.666 131.614 332.388 131.576 329.539Z" stroke="#21DB7E"/>
<path d="M131.275 306.91C131.237 304.061 133.511 301.722 136.353 301.684C139.195 301.646 141.531 303.923 141.569 306.772C141.607 309.621 139.333 311.96 136.491 311.998C133.649 312.036 131.313 309.759 131.275 306.91Z" fill="#21DB7E" stroke="#21DB7E"/>
<ellipse rx="5.64771" ry="5.65771" transform="matrix(-0.999911 0.0133637 -0.0133164 -0.999911 249.396 307.595)" fill="#21DB7E"/>
<ellipse rx="3.38862" ry="3.39462" transform="matrix(-0.999911 0.0133637 -0.0133164 -0.999911 194.158 231.381)" fill="#21DB7E"/>
<ellipse rx="5.64771" ry="5.65771" transform="matrix(-0.999911 0.0133637 -0.0133164 -0.999911 115.369 252.804)" fill="#21DB7E"/>
<ellipse rx="6.77725" ry="6.78925" transform="matrix(-0.999911 0.0133637 -0.0133164 -0.999911 95.8517 229.301)" fill="#21DB7E"/>
<ellipse rx="3.38862" ry="3.39462" transform="matrix(-0.999911 0.0133637 -0.0133164 -0.999911 214.368 222.058)" fill="#21DB7E"/>
<ellipse rx="5.64771" ry="5.65771" transform="matrix(-0.999911 0.0133637 -0.0133164 -0.999911 244.187 425.355)" fill="#21DB7E"/>
<path d="M70.5863 330.354C70.5483 327.505 72.8229 325.166 75.6648 325.128C78.5067 325.09 80.8428 327.368 80.8808 330.217C80.9187 333.066 78.6441 335.405 75.8022 335.443C72.9603 335.481 70.6242 333.203 70.5863 330.354Z" stroke="#21DB7E"/>
<path d="M39.3538 360.194C39.3159 357.345 41.5905 355.006 44.4324 354.968C47.2743 354.93 49.6104 357.208 49.6483 360.057C49.6863 362.906 47.4117 365.245 44.5698 365.283C41.7279 365.321 39.3918 363.043 39.3538 360.194Z" stroke="#21DB7E"/>
<path d="M27.5467 321.876C27.5088 319.027 29.7834 316.688 32.6253 316.65C35.4672 316.612 37.8033 318.89 37.8412 321.739C37.8792 324.588 35.6046 326.927 32.7626 326.965C29.9207 327.003 27.5847 324.725 27.5467 321.876Z" fill="#21DB7E" stroke="#21DB7E"/>
<path d="M47.8767 321.604C47.8222 317.505 51.0946 314.14 55.1841 314.085C59.2735 314.03 62.6344 317.307 62.689 321.406C62.7436 325.505 59.4712 328.871 55.3817 328.925C51.2922 328.98 47.9313 325.703 47.8767 321.604Z" fill="#21DB7E" stroke="#21DB7E"/>
<path d="M239.458 409.575L205.137 377.216L204.489 328.564L190.71 311.773L189.896 250.676L179.536 236.103" stroke="#21DB7E"/>
<path d="M223.254 380.368L212.938 369.19L212.366 326.195L198.586 309.405L198.195 279.987L203.736 271.992L203.571 259.546" stroke="#21DB7E"/>
<path d="M172.899 378.779C172.861 375.929 175.135 373.591 177.977 373.553C180.819 373.515 183.155 375.792 183.193 378.641C183.231 381.49 180.957 383.829 178.115 383.867C175.273 383.905 172.937 381.628 172.899 378.779Z" stroke="#21DB7E"/>
<path d="M180.399 432.998C180.361 430.148 182.635 427.81 185.477 427.772C188.319 427.734 190.655 430.011 190.693 432.86C190.731 435.709 188.457 438.048 185.615 438.086C182.773 438.124 180.437 435.847 180.399 432.998Z" stroke="#21DB7E"/>
<path d="M95.8076 395.651L95.5063 373.023L33.387 373.853L20.8276 363.836L20.6769 352.522" stroke="#21DB7E"/>
<path d="M163.166 194.451L164.296 279.309L172.338 289.386L172.775 322.198L186.554 338.989L187.323 396.692" stroke="#21DB7E"/>
<path d="M176.856 374.199L176.434 342.518L170.636 331.279L159.342 331.43L159.915 374.425L170.366 395.787L170.667 418.416L182.112 429.579" stroke="#21DB7E"/>
<path d="M249.998 267.979L229.668 268.251L222.786 260.422L222.409 232.136L216.657 224.291" stroke="#21DB7E"/>
<path d="M152.4 319.075L151.963 286.264L141.798 286.4L120.625 308.184L121.378 364.756" stroke="#21DB7E"/>
<path d="M146.391 291.997L147.581 381.381L156.873 400.494L157.174 423.123" stroke="#21DB7E"/>
<path d="M126.935 357.892L126.377 316.029L133.063 309.15" stroke="#21DB7E"/>
<path d="M118.969 438.345L118.487 402.139L141.934 381.456L141.618 357.696L137.009 350.968L136.783 333.996" stroke="#21DB7E"/>
<path d="M125.67 432.597L125.354 408.837L139.856 395.064L147.762 394.958L148.214 428.901" stroke="#21DB7E"/>
<path d="M96.3658 437.516L96.0644 414.887L106.049 401.174L105.31 345.733L54.4854 346.413L46.715 356.701" stroke="#21DB7E"/>
<path d="M105.174 335.55L104.662 297.081L138.093 262.685L136.662 155.198" stroke="#21DB7E"/>
<path d="M99.497 333.363L82.6458 340.378L41.9859 340.921L33.8689 325.187" stroke="#21DB7E"/>
<path d="M0 474.229L0 6.10352e-05H297.03L297.03 237.752H332.725V474.229H0Z" fill="url(#paint0_linear_240_668)"/>
<path d="M0 474.229L0 6.10352e-05H297.03L297.03 237.752H332.725V474.229H0Z" fill="url(#paint1_linear_240_668)"/>
<path d="M0 474.229L0 6.10352e-05H297.03L297.03 237.752H332.725V474.229H0Z" fill="url(#paint2_linear_240_668)"/>
<path d="M0 474.229L0 6.10352e-05H297.03L297.03 237.752H332.725V474.229H0Z" fill="url(#paint3_linear_240_668)"/>
<path d="M0 474.229L0 6.10352e-05H297.03L297.03 237.752H332.725V474.229H0Z" fill="url(#paint4_linear_240_668)"/>
<path d="M0 474.229L0 6.10352e-05H297.03L297.03 237.752H332.725V474.229H0Z" fill="url(#paint5_linear_240_668)"/>
<defs>
<linearGradient id="paint0_linear_240_668" x1="272.572" y1="364.961" x2="42.1574" y2="289.607" gradientUnits="userSpaceOnUse">
<stop offset="0.158126" stop-color="#181818"/>
<stop offset="1" stop-color="#181818" stop-opacity="0"/>
</linearGradient>
<linearGradient id="paint1_linear_240_668" x1="-2.11419" y1="341.941" x2="168.655" y2="278.767" gradientUnits="userSpaceOnUse">
<stop offset="0.136458" stop-color="#181818"/>
<stop offset="1" stop-color="#181818" stop-opacity="0"/>
</linearGradient>
<linearGradient id="paint2_linear_240_668" x1="165.777" y1="161.589" x2="165.643" y2="237.46" gradientUnits="userSpaceOnUse">
<stop stop-color="#181818"/>
<stop offset="1" stop-color="#181818" stop-opacity="0"/>
</linearGradient>
<linearGradient id="paint3_linear_240_668" x1="272.572" y1="364.961" x2="42.1574" y2="289.607" gradientUnits="userSpaceOnUse">
<stop offset="0.158126" stop-color="#181818"/>
<stop offset="1" stop-color="#181818" stop-opacity="0"/>
</linearGradient>
<linearGradient id="paint4_linear_240_668" x1="-2.11419" y1="341.941" x2="168.655" y2="278.767" gradientUnits="userSpaceOnUse">
<stop offset="0.136458" stop-color="#181818"/>
<stop offset="1" stop-color="#181818" stop-opacity="0"/>
</linearGradient>
<linearGradient id="paint5_linear_240_668" x1="165.777" y1="161.589" x2="165.643" y2="237.46" gradientUnits="userSpaceOnUse">
<stop stop-color="#181818"/>
<stop offset="1" stop-color="#181818" stop-opacity="0"/>
</linearGradient>
</defs>
</svg>
