<svg width="67" height="57" viewBox="0 0 67 57" fill="none" xmlns="http://www.w3.org/2000/svg">
<path d="M56.9932 32.4879C54.6987 32.5026 52.7117 33.1329 51.0454 34.071C50.4301 32.6786 49.8148 31.4618 49.7124 30.5531C49.597 29.4977 49.456 28.8526 49.597 27.5922C49.7379 26.3315 50.3788 24.5432 50.3788 24.3966C50.3659 24.2647 50.2377 23.6197 48.9175 23.6051C47.5974 23.5904 46.4563 23.8982 46.3282 24.294C46.2 24.6898 45.9436 25.5986 45.777 26.5367C45.5463 27.9145 43.1364 32.7957 41.7648 35.3608C41.3162 34.3641 40.9316 33.4846 40.8546 32.7808C40.7394 31.7257 40.5982 31.0806 40.7394 29.8201C40.8804 28.5594 41.5213 26.7713 41.5213 26.6246C41.5084 26.4927 41.3803 25.8477 40.0601 25.8331C38.7396 25.8185 37.5989 26.1263 37.4708 26.522C37.3425 26.9178 37.2015 27.856 36.9195 28.7647C36.6502 29.6735 33.4456 37.8234 32.6124 39.9488C32.1894 41.0335 31.8178 41.8982 31.5485 42.4846C31.2793 43.0709 31.5357 42.5286 31.51 42.5872C31.2793 43.0856 31.151 43.3641 31.151 43.3641V43.3789C30.9717 43.7454 30.7793 44.097 30.6895 44.097C30.6254 44.097 30.4972 43.1149 30.7152 41.7665C31.1893 38.9374 32.3431 34.5254 32.3304 34.3642C32.3304 34.291 32.5482 33.5139 31.5868 33.1182C30.651 32.7225 30.3179 33.3821 30.2408 33.3821C30.1639 33.3821 30.0998 33.6167 30.0998 33.6167C30.0998 33.6167 31.1382 28.6478 28.113 28.6478C26.2158 28.6478 23.6008 31.0077 22.3062 33.1624C21.4859 33.6754 19.7424 34.76 17.8966 35.9182C17.1915 36.3579 16.4608 36.8269 15.7687 37.252L15.6278 37.0759C11.9618 32.6051 5.18076 29.439 5.46276 23.4292C5.56532 21.2451 6.23188 15.4845 18.4865 8.50736C28.5235 2.79068 36.5606 4.35911 37.9577 7.84774C39.9446 12.8315 33.6635 22.0953 23.2293 23.4292C19.2556 23.9422 17.166 22.1832 16.6407 21.5237C16.0894 20.8347 16.0125 20.8054 15.8074 20.9373C15.4742 21.1425 15.6793 21.7582 15.8074 22.1246C16.1151 23.0481 17.3969 24.6898 19.5761 25.5106C21.4859 26.2288 26.152 26.6246 31.7922 24.1328C38.1117 21.3331 43.0468 13.5643 41.5982 7.07083C40.1241 0.460053 30.5359 -1.70932 21.4732 1.9698C16.0765 4.16852 10.2313 7.59855 6.02676 12.0986C1.02754 17.4341 0.232821 22.0953 0.566102 24.0301C1.73273 30.934 10.0518 35.4341 13.3846 38.7615C13.2179 38.864 13.0641 38.9666 12.9231 39.0546C11.2567 39.9926 4.9116 43.7891 3.32207 47.8053C1.52751 52.3493 3.60407 55.6182 4.98848 56.0579C9.26985 57.4211 13.6538 54.9732 16.0253 50.9424C18.3837 46.9114 18.1018 41.6785 17.0122 39.2891L16.9737 39.2013L18.2811 38.3218C19.1273 37.7501 19.9605 37.2224 20.691 36.7678C20.281 38.0431 19.986 39.5529 19.8324 41.7516C19.6529 44.3316 20.5757 47.6735 21.7936 48.9926C22.3319 49.5641 22.9728 49.579 23.3702 49.579C24.7803 49.579 25.4212 48.2449 26.1262 46.6473C26.9979 44.6979 27.767 42.4406 27.767 42.4406C27.767 42.4406 26.8056 48.553 29.4334 48.553C30.3948 48.553 31.3561 47.1311 31.792 46.3981V46.4128C31.792 46.4128 31.8177 46.3689 31.8688 46.2663C31.9228 46.1754 31.9739 46.0826 32.0227 45.988V45.9585C32.4073 45.1963 33.2661 43.4521 34.548 40.5644C36.2015 36.8412 37.791 32.18 37.791 32.18C37.791 32.18 37.9449 33.3234 38.4193 35.1996C38.701 36.3138 39.3164 37.5302 39.7906 38.7176C39.4061 39.3331 39.1754 39.6851 39.1754 39.6851L39.1882 39.6997C38.8806 40.1688 38.5345 40.6673 38.1756 41.1656C36.8682 42.9538 35.3042 44.9915 35.0992 45.5777C34.8555 46.2666 34.9069 46.7796 35.3812 47.1901C35.7272 47.4834 36.3426 47.5418 36.9963 47.4834C38.1756 47.3952 38.996 47.0582 39.4062 46.8528C40.0471 46.589 40.7777 46.1933 41.4827 45.6069C42.7647 44.5225 43.5465 42.9833 43.4697 40.9312C43.4312 39.8025 43.1107 38.6885 42.7134 37.6331C42.8287 37.4426 42.9443 37.2519 43.0595 37.0468C45.0848 33.6607 46.6487 29.9376 46.6487 29.9376C46.6487 29.9376 46.8025 31.081 47.2768 32.9572C47.5201 33.9101 48.0074 34.9509 48.4433 35.9769C46.5461 37.7505 45.3539 39.8026 44.9438 41.1512C44.1875 43.6431 44.7771 44.7716 45.8923 45.0356C46.3921 45.1528 47.1101 44.889 47.6484 44.6251C48.3148 44.3759 49.1225 43.9508 49.866 43.3206C51.148 42.2359 52.3785 40.7261 52.3144 38.6887C52.276 37.7505 52.058 36.8271 51.7632 35.9476C53.3784 35.1853 55.4676 34.7456 58.1212 35.1121C63.8255 35.8743 64.9531 39.9491 64.7356 41.6496C64.5181 43.35 63.3256 44.2881 62.9281 44.5812C62.5308 44.8597 62.4026 44.9624 62.4411 45.1676C62.4923 45.4754 62.6718 45.4606 63.0179 45.4022C63.4921 45.3141 66.0172 44.0096 66.1203 40.873C66.2741 36.8415 62.9281 32.444 56.9932 32.4879ZM13.0001 49.4472C11.1157 51.8071 8.46229 52.7013 7.33429 51.9391C6.11657 51.1329 6.59066 47.6589 8.91098 45.1525C10.321 43.6279 12.1541 42.2207 13.3589 41.356C13.6282 41.1655 14.0384 40.887 14.5255 40.5498C14.6024 40.4913 14.6537 40.4618 14.6537 40.4618C14.7434 40.4032 14.8459 40.33 14.9485 40.2566C15.8073 43.8331 14.9869 46.97 13.0001 49.4472ZM26.7799 38.7322C26.1262 40.5644 24.7418 45.2696 23.9086 45.0058C23.1906 44.786 22.7549 41.2241 23.7674 37.7061C24.2802 35.9323 25.3698 33.8216 26.0107 33.0008C27.0492 31.6815 28.1771 31.2418 28.4592 31.7841C28.7925 32.4879 27.1902 37.5889 26.7799 38.7322ZM38.15 44.9472C37.868 45.1086 37.6116 45.2257 37.4962 45.1378C37.4065 45.0793 37.6114 44.8594 37.6114 44.8594C37.6114 44.8594 39.0344 43.115 39.5984 42.3088C39.9189 41.8399 40.3033 41.2976 40.7136 40.6818V40.8578C40.7137 42.9684 38.9447 44.3755 38.15 44.9472ZM46.9178 42.6606C46.7126 42.4846 46.7383 41.9423 47.4304 40.242C47.6998 39.5678 48.3148 38.439 49.3789 37.369C49.5071 37.8086 49.584 38.2337 49.5711 38.6296C49.5584 41.268 47.9176 42.2501 46.9178 42.6606Z" fill="#21DB7E"/>
</svg>
