<svg width="14" height="14" viewBox="0 0 14 14" fill="none" xmlns="http://www.w3.org/2000/svg">
<path d="M7 11.375C7.23206 11.375 7.45462 11.4672 7.61872 11.6313C7.78281 11.7954 7.875 12.0179 7.875 12.25V13.125C7.875 13.3571 7.78281 13.5796 7.61872 13.7437C7.45462 13.9078 7.23206 14 7 14C6.76794 14 6.54538 13.9078 6.38128 13.7437C6.21719 13.5796 6.125 13.3571 6.125 13.125V12.25C6.125 12.0179 6.21719 11.7954 6.38128 11.6313C6.54538 11.4672 6.76794 11.375 7 11.375ZM7 2.625C6.76794 2.625 6.54538 2.53281 6.38128 2.36872C6.21719 2.20462 6.125 1.98206 6.125 1.75V0.875C6.125 0.642936 6.21719 0.420376 6.38128 0.256282C6.54538 0.0921873 6.76794 0 7 0C7.23206 0 7.45462 0.0921873 7.61872 0.256282C7.78281 0.420376 7.875 0.642936 7.875 0.875V1.75C7.875 1.98206 7.78281 2.20462 7.61872 2.36872C7.45462 2.53281 7.23206 2.625 7 2.625ZM13.125 6.125C13.3571 6.125 13.5796 6.21719 13.7437 6.38128C13.9078 6.54538 14 6.76794 14 7C14 7.23206 13.9078 7.45462 13.7437 7.61872C13.5796 7.78281 13.3571 7.875 13.125 7.875H12.25C12.0179 7.875 11.7954 7.78281 11.6313 7.61872C11.4672 7.45462 11.375 7.23206 11.375 7C11.375 6.76794 11.4672 6.54538 11.6313 6.38128C11.7954 6.21719 12.0179 6.125 12.25 6.125H13.125ZM2.625 7C2.625 7.23206 2.53281 7.45462 2.36872 7.61872C2.20462 7.78281 1.98206 7.875 1.75 7.875H0.875C0.642936 7.875 0.420376 7.78281 0.256282 7.61872C0.0921873 7.45462 0 7.23206 0 7C0 6.76794 0.0921873 6.54538 0.256282 6.38128C0.420376 6.21719 0.642936 6.125 0.875 6.125H1.75C1.98206 6.125 2.20462 6.21719 2.36872 6.38128C2.53281 6.54538 2.625 6.76794 2.625 7ZM11.3313 10.094L11.9499 10.7126C12.1093 10.8777 12.1975 11.0987 12.1955 11.3281C12.1935 11.5575 12.1014 11.777 11.9392 11.9392C11.777 12.1014 11.5575 12.1935 11.3281 12.1955C11.0987 12.1975 10.8777 12.1093 10.7126 11.9499L10.094 11.3313C9.93461 11.1662 9.84642 10.9452 9.84841 10.7158C9.8504 10.4864 9.94243 10.2669 10.1047 10.1047C10.2669 9.94243 10.4864 9.8504 10.7158 9.84841C10.9452 9.84642 11.1662 9.93461 11.3313 10.094ZM2.66875 3.906L2.05012 3.28737C1.96889 3.20614 1.90444 3.10969 1.86048 3.00355C1.81651 2.8974 1.79388 2.78364 1.79388 2.66875C1.79388 2.55386 1.81651 2.4401 1.86048 2.33395C1.90444 2.22781 1.96889 2.13136 2.05012 2.05012C2.13136 1.96889 2.22781 1.90444 2.33395 1.86048C2.4401 1.81651 2.55386 1.79388 2.66875 1.79388C2.78364 1.79388 2.8974 1.81651 3.00355 1.86048C3.10969 1.90444 3.20614 1.96889 3.28737 2.05012L3.906 2.66875C3.98724 2.74999 4.05168 2.84643 4.09565 2.95258C4.13961 3.05872 4.16224 3.17249 4.16224 3.28737C4.16224 3.40226 4.13961 3.51603 4.09565 3.62217C4.05168 3.72832 3.98724 3.82476 3.906 3.906C3.82476 3.98724 3.72832 4.05168 3.62217 4.09565C3.51603 4.13961 3.40226 4.16224 3.28737 4.16224C3.17249 4.16224 3.05872 4.13961 2.95258 4.09565C2.84643 4.05168 2.74999 3.98724 2.66875 3.906ZM11.3313 3.906C11.1672 4.07007 10.9447 4.16224 10.7126 4.16224C10.4806 4.16224 10.2581 4.07007 10.094 3.906C9.92993 3.74193 9.83776 3.5194 9.83776 3.28737C9.83776 3.05535 9.92993 2.83282 10.094 2.66875L10.7126 2.05012C10.8767 1.88606 11.0992 1.79388 11.3313 1.79388C11.5633 1.79388 11.7858 1.88606 11.9499 2.05012C12.1139 2.21419 12.2061 2.43672 12.2061 2.66875C12.2061 2.90078 12.1139 3.12331 11.9499 3.28737L11.3313 3.906ZM2.66875 10.094C2.83378 9.93461 3.0548 9.84642 3.28423 9.84841C3.51365 9.8504 3.73311 9.94243 3.89534 10.1047C4.05757 10.2669 4.1496 10.4864 4.15159 10.7158C4.15358 10.9452 4.06539 11.1662 3.906 11.3313L3.28737 11.9499C3.12235 12.1093 2.90132 12.1975 2.6719 12.1955C2.44248 12.1935 2.22302 12.1014 2.06078 11.9392C1.89855 11.777 1.80653 11.5575 1.80454 11.3281C1.80254 11.0987 1.89074 10.8777 2.05012 10.7126L2.66875 10.094ZM7 3.5C6.07174 3.5 5.1815 3.86875 4.52513 4.52513C3.86875 5.1815 3.5 6.07174 3.5 7C3.5 7.92826 3.86875 8.8185 4.52513 9.47487C5.1815 10.1313 6.07174 10.5 7 10.5C7.92826 10.5 8.8185 10.1313 9.47487 9.47487C10.1313 8.8185 10.5 7.92826 10.5 7C10.5 6.07174 10.1313 5.1815 9.47487 4.52513C8.8185 3.86875 7.92826 3.5 7 3.5Z" fill="#F6E32F"/>
</svg>
