<svg width="25" height="25" viewBox="0 0 25 25" fill="none" xmlns="http://www.w3.org/2000/svg">
<path d="M3.35321 12.6317L7.96108 14.4094L9.74557 20.3397C9.77017 20.4269 9.81584 20.5063 9.87846 20.5711C9.94107 20.6358 10.0187 20.6837 10.1042 20.7104C10.1897 20.7372 10.2804 20.7418 10.3682 20.724C10.4559 20.7062 10.5379 20.6665 10.6067 20.6086L13.1756 18.4428C13.3057 18.3326 13.4687 18.27 13.6383 18.2651C13.8078 18.2602 13.974 18.3133 14.1101 18.4158L18.7436 21.8934C18.8171 21.9483 18.9033 21.9834 18.994 21.9954C19.0847 22.0074 19.1769 21.9958 19.2619 21.9619C19.347 21.9279 19.4221 21.8727 19.4804 21.8013C19.5386 21.7298 19.5779 21.6446 19.5947 21.5536L22.9881 4.67743C23.0759 4.24202 22.6625 3.87862 22.2614 4.03838L3.34766 11.5809C2.88098 11.7677 2.88542 12.4506 3.35321 12.6317ZM9.45778 13.4643L18.4647 7.72864C18.6269 7.62626 18.7936 7.8524 18.6536 7.98516L11.22 15.1283C10.9583 15.3815 10.7901 15.7178 10.7434 16.0812L10.49 18.0209C10.4567 18.2796 10.1045 18.3055 10.0356 18.0546L9.06222 14.5174C9.0077 14.3219 9.01672 14.1139 9.08795 13.9241C9.15919 13.7342 9.28886 13.5726 9.45778 13.4632V13.4643Z" fill="white"/>
</svg>
