<svg width="19" height="17" viewBox="0 0 19 17" fill="none" xmlns="http://www.w3.org/2000/svg">
<path d="M0.335552 8.1522L4.71303 9.83107L6.40829 15.4319C6.43166 15.5143 6.47504 15.5893 6.53454 15.6505C6.59402 15.7116 6.66773 15.7568 6.74897 15.782C6.8302 15.8073 6.91641 15.8117 6.99978 15.7949C7.08314 15.7781 7.16102 15.7406 7.22636 15.6859L9.66686 13.6404C9.79045 13.5364 9.94527 13.4772 10.1063 13.4726C10.2674 13.4679 10.4253 13.5181 10.5546 13.6149L14.9564 16.8993C15.0263 16.9512 15.1082 16.9843 15.1943 16.9957C15.2804 17.007 15.3681 16.996 15.4488 16.964C15.5297 16.9319 15.601 16.8798 15.6563 16.8123C15.7116 16.7448 15.749 16.6644 15.765 16.5784L18.9887 0.639791C19.0721 0.228574 18.6794 -0.114638 18.2983 0.0362477L0.330274 7.15976C-0.113069 7.33614 -0.108847 7.98113 0.335552 8.1522ZM6.13489 8.93851L14.6914 3.5215C14.8455 3.4248 15.0039 3.63838 14.8709 3.76376L7.80904 10.5101C7.5604 10.7492 7.4006 11.0668 7.3562 11.4101L7.11553 13.2419C7.08386 13.4863 6.74924 13.5108 6.6838 13.2738L5.75911 9.93308C5.70731 9.7485 5.71588 9.55205 5.78356 9.37275C5.85123 9.19345 5.97442 9.04084 6.13489 8.93745V8.93851Z" fill="white"/>
</svg>
