<svg width="20" height="20" viewBox="0 0 20 20" fill="none" xmlns="http://www.w3.org/2000/svg">
<g clip-path="url(#clip0_331_493)">
<path d="M19.5467 3.70246C19.2325 3.84181 18.9094 3.95942 18.5794 4.05491C18.9701 3.61297 19.2681 3.09297 19.45 2.52394C19.4907 2.39639 19.4485 2.25678 19.3436 2.17336C19.2389 2.08987 19.0934 2.07987 18.9781 2.1482C18.2772 2.56394 17.5209 2.86271 16.728 3.03742C15.9292 2.25691 14.8443 1.81271 13.7227 1.81271C11.3553 1.81271 9.42924 3.73871 9.42924 6.10607C9.42924 6.29252 9.44105 6.47794 9.46441 6.66078C6.52666 6.40284 3.7955 4.95891 1.92002 2.65833C1.85318 2.57633 1.75021 2.53213 1.64479 2.54058C1.53931 2.54884 1.44454 2.60833 1.39125 2.69975C1.01086 3.35246 0.809762 4.09897 0.809762 4.85852C0.809762 5.89304 1.17912 6.87459 1.83157 7.64155C1.63318 7.57284 1.44067 7.48697 1.25692 7.38497C1.15828 7.33007 1.03789 7.33091 0.939892 7.3871C0.841827 7.44329 0.780343 7.54665 0.777763 7.65962C0.777311 7.67865 0.777311 7.69768 0.777311 7.71697C0.777311 9.26117 1.60841 10.6514 2.87905 11.4092C2.76989 11.3983 2.66079 11.3825 2.55241 11.3617C2.44067 11.3404 2.32576 11.3796 2.25041 11.4648C2.17492 11.5499 2.14996 11.6687 2.18473 11.777C2.65505 13.2454 3.86596 14.3255 5.32983 14.6548C4.1157 15.4152 2.72725 15.8136 1.2697 15.8136C0.965569 15.8136 0.659698 15.7957 0.360343 15.7603C0.211634 15.7426 0.06944 15.8304 0.0187948 15.9718C-0.0318503 16.1133 0.0218271 16.271 0.148343 16.3521C2.02079 17.5527 4.18589 18.1873 6.40944 18.1873C10.7807 18.1873 13.5152 16.126 15.0394 14.3968C16.94 12.2406 18.0301 9.38659 18.0301 6.56665C18.0301 6.44884 18.0283 6.32988 18.0247 6.21129C18.7745 5.64633 19.4201 4.96258 19.9455 4.17671C20.0253 4.05736 20.0167 3.89962 19.9242 3.78975C19.8319 3.67981 19.678 3.64426 19.5467 3.70246Z" fill="white"/>
</g>
<defs>
<clipPath id="clip0_331_493">
<rect width="20" height="20" fill="white"/>
</clipPath>
</defs>
</svg>
