<svg width="25" height="25" viewBox="0 0 25 25" fill="none" xmlns="http://www.w3.org/2000/svg">
<path d="M22.5467 6.88974C22.2325 7.02909 21.9095 7.1467 21.5794 7.24219C21.9702 6.80025 22.2681 6.28025 22.45 5.71122C22.4908 5.58368 22.4485 5.44406 22.3437 5.36064C22.239 5.27716 22.0935 5.26716 21.9782 5.33548C21.2772 5.75122 20.521 6.05 19.728 6.22471C18.9293 5.44419 17.8444 5 16.7228 5C14.3554 5 12.4293 6.92599 12.4293 9.29334C12.4293 9.47979 12.4411 9.66521 12.4645 9.84805C9.52677 9.59012 6.79561 8.14618 4.92014 5.84561C4.8533 5.76361 4.75033 5.71942 4.64491 5.72787C4.53943 5.73613 4.44465 5.79561 4.39136 5.88703C4.01098 6.53974 3.80988 7.28625 3.80988 8.0458C3.80988 9.08031 4.17924 10.0619 4.83169 10.8288C4.6333 10.7601 4.44078 10.6742 4.25704 10.5722C4.1584 10.5173 4.03801 10.5182 3.94001 10.5744C3.84195 10.6306 3.78046 10.7339 3.77788 10.8469C3.77743 10.8659 3.77743 10.8849 3.77743 10.9042C3.77743 12.4484 4.60852 13.8387 5.87917 14.5964C5.77 14.5855 5.66091 14.5697 5.55252 14.549C5.44078 14.5276 5.32588 14.5668 5.25052 14.652C5.17504 14.7372 5.15007 14.8559 5.18485 14.9643C5.65517 16.4327 6.86607 17.5127 8.32993 17.842C7.11581 18.6025 5.72736 19.0008 4.26982 19.0008C3.96569 19.0008 3.65982 18.9829 3.36046 18.9475C3.21175 18.9298 3.06956 19.0176 3.01892 19.1591C2.96827 19.3005 3.02195 19.4583 3.14846 19.5394C5.02091 20.74 7.186 21.3745 9.40954 21.3745C13.7808 21.3745 16.5153 19.3132 18.0394 17.584C19.9401 15.4278 21.0301 12.5738 21.0301 9.75392C21.0301 9.63611 21.0283 9.51715 21.0247 9.39857C21.7746 8.8336 22.4202 8.14986 22.9456 7.36399C23.0254 7.24464 23.0167 7.0869 22.9243 6.97703C22.8319 6.86709 22.6781 6.83154 22.5467 6.88974Z" fill="white"/>
</svg>
