<svg width="25" height="25" viewBox="0 0 25 25" fill="none" xmlns="http://www.w3.org/2000/svg">
<path d="M12.6469 2.00312C10.9249 2.02391 7.22273 2.30689 5.15203 4.20659C3.61175 5.73279 3.07396 7.98924 3.01092 10.7794C2.95862 13.5596 2.89559 18.7806 7.92816 20.2022V22.3674C7.92816 22.3674 7.89664 23.2338 8.46931 23.4115C9.17474 23.6348 9.5764 22.9683 10.247 22.2521L11.4976 20.8379C14.9409 21.1242 17.5782 20.4644 17.882 20.3665C18.5807 20.1432 22.5163 19.6403 23.1593 14.4186C23.8192 9.02593 22.8381 5.62818 21.0672 4.09125H21.0564C20.522 3.59906 18.3742 2.03397 13.5756 2.01653C13.5756 2.01653 13.2196 1.99239 12.6469 2.00245V2.00312Z" fill="white"/>
<path d="M12.8766 6.29208C12.8377 6.29169 12.7992 6.29884 12.7632 6.3131C12.7272 6.32737 12.6944 6.34846 12.6668 6.37518C12.6391 6.4019 12.6171 6.43371 12.6021 6.46877C12.5871 6.50384 12.5793 6.54147 12.5792 6.57949C12.5792 6.74206 12.7142 6.87053 12.8766 6.87053C13.6119 6.85684 14.3427 6.98576 15.0269 7.24984C15.711 7.51393 16.335 7.90795 16.8627 8.40919C17.9403 9.43328 18.4654 10.8094 18.4854 12.6086C18.4854 12.7675 18.6166 12.8996 18.7828 12.8996V12.888C18.8611 12.8882 18.9362 12.8581 18.992 12.8043C19.0477 12.7504 19.0794 12.6772 19.0801 12.6006C19.1162 11.7537 18.9758 10.9085 18.6677 10.1164C18.3595 9.32421 17.89 8.60164 17.2877 7.99259C16.1137 6.8698 14.626 6.29135 12.8766 6.29135V6.29208ZM8.96758 6.95762C8.75767 6.92761 8.54358 6.96884 8.36095 7.07447H8.34538C7.92137 7.31771 7.53941 7.62514 7.21368 7.98534C6.943 8.29162 6.79616 8.60153 6.75759 8.89982C6.7346 9.07764 6.75018 9.25546 6.80432 9.42529L6.8236 9.43691C7.1284 10.3137 7.52664 11.157 8.01314 11.951C8.63981 13.0665 9.41103 14.0982 10.3077 15.0204L10.3344 15.0581L10.3766 15.0886L10.4033 15.1191L10.4345 15.1452C11.3802 16.0253 12.4369 16.7836 13.5789 17.4017C14.8841 18.097 15.6762 18.4258 16.1515 18.5622V18.5695C16.291 18.6108 16.4178 18.6297 16.5453 18.6297C16.9505 18.6007 17.334 18.4397 17.6348 18.1725C18.0011 17.8536 18.3118 17.4783 18.5543 17.0613V17.054C18.782 16.6345 18.7049 16.2375 18.3764 15.969C17.7184 15.4061 17.0069 14.9062 16.2517 14.476C15.7459 14.2075 15.2319 14.3701 15.0236 14.6422L14.5793 15.1902C14.3517 15.4624 13.9378 15.4246 13.9378 15.4246L13.926 15.4319C10.8401 14.6604 10.017 11.6026 10.017 11.6026C10.017 11.6026 9.9784 11.1868 10.2639 10.9748L10.8201 10.5365C11.0864 10.3245 11.2718 9.8223 10.9862 9.32659C10.5497 8.5864 10.04 7.88993 9.46446 7.24721C9.33863 7.09569 9.16211 6.9926 8.9661 6.95617L8.96758 6.95762ZM13.3898 7.81986C12.996 7.81986 12.996 8.40194 13.3935 8.40194C13.8832 8.40971 14.3665 8.51185 14.8158 8.70251C15.2651 8.89317 15.6716 9.16862 16.0121 9.51311C16.3227 9.84843 16.5614 10.2414 16.714 10.6686C16.8666 11.0958 16.9301 11.5487 16.9006 12.0004C16.9019 12.0768 16.9338 12.1497 16.9894 12.2034C17.045 12.2571 17.1198 12.2874 17.1979 12.2878L17.2098 12.303C17.2885 12.3025 17.3638 12.2716 17.4194 12.2172C17.4751 12.1627 17.5066 12.089 17.5072 12.012C17.5339 10.8587 17.1675 9.89125 16.4489 9.11611C15.7266 8.34097 14.7187 7.90622 13.4321 7.81986H13.3898ZM13.877 9.38465C13.4714 9.37304 13.4558 9.96673 13.8577 9.97834C14.8352 10.0277 15.3098 10.5111 15.3721 11.5054C15.3735 11.5809 15.405 11.6528 15.4598 11.7059C15.5147 11.7589 15.5886 11.7888 15.6658 11.7892H15.6776C15.7173 11.7875 15.7562 11.7781 15.7921 11.7616C15.828 11.745 15.8602 11.7217 15.8868 11.6928C15.9134 11.664 15.9338 11.6302 15.9469 11.5936C15.9601 11.5569 15.9656 11.518 15.9632 11.4793C15.8935 10.183 15.1711 9.45287 13.8889 9.38538H13.877V9.38465Z" fill="#181818"/>
</svg>
