<svg width="21" height="10" viewBox="0 0 21 10" fill="none" xmlns="http://www.w3.org/2000/svg">
<path d="M10.7492 8.24107C9.20265 8.25871 7.65598 8.2206 6.1122 8.12679C5.94958 8.10921 5.84849 8.19272 5.75179 8.28941L4.46399 9.66073C4.39806 9.72666 4.33213 9.85851 4.21785 9.81016C4.10358 9.76182 4.15193 9.63435 4.15193 9.53326V8.3905C4.16951 8.09602 4.10797 7.95098 3.75636 7.95098C3.3476 7.9334 2.87731 7.88505 2.5125 7.80154C1.14998 7.46311 0.200609 6.69834 0.0687522 5.08968C0.00282371 4.38644 -0.0455239 3.69639 0.0687522 2.99315C0.127705 2.3486 0.41059 1.74506 0.868264 1.28738C1.32594 0.829709 1.92948 0.546823 2.57404 0.487871C4.67056 0.145043 6.78467 0.0351619 8.90318 0L15.54 0.149438C16.6082 0.203917 17.6705 0.340573 18.7177 0.558195C19.9792 0.821909 20.8274 1.78886 20.9461 3.09864C21.012 3.84583 21.034 4.60621 20.9154 5.35779C20.7703 6.35551 20.2121 7.06314 19.2891 7.4675C18.4886 7.77896 17.6421 7.95569 16.7838 7.99054L10.7536 8.23667L10.7492 8.24107Z" fill="white"/>
<path d="M5.34301 6.09177C5.63749 6.09177 5.98031 5.81487 6.08141 5.53358C6.1825 5.25228 5.98471 5.15559 5.81769 5.02373C5.70341 4.92704 5.57156 4.84792 5.45728 4.76002C5.21115 4.58421 4.9826 4.58421 4.798 4.85671C4.7013 5.01934 4.55186 5.01934 4.40242 4.95341C3.99313 4.77557 3.66211 4.45548 3.47064 4.05239C3.38273 3.87658 3.38273 3.69198 3.58491 3.56012C3.68161 3.49419 3.79588 3.41068 3.7827 3.25245C3.64635 2.88235 3.4069 2.55901 3.09264 2.32066C3.00474 2.2899 2.93002 2.2899 2.84651 2.32066C2.40699 2.4701 2.2092 2.84809 2.38941 3.27003C2.63723 3.89349 3.00879 4.46027 3.48168 4.93617C3.95456 5.41208 4.51896 5.78725 5.14082 6.03903C5.22873 6.0698 5.30345 6.0698 5.33861 6.08298L5.34301 6.09177ZM4.39363 2.24155C4.32771 2.25913 4.18266 2.1976 4.18266 2.33824C4.18266 2.43494 4.29694 2.42615 4.38045 2.43494C4.78 2.4475 5.15897 2.61511 5.43709 2.90225C5.71521 3.18939 5.87063 3.57352 5.87043 3.97327C5.88801 4.06118 5.85285 4.18424 5.96713 4.20182C6.0814 4.2194 6.06382 4.06997 6.06382 3.99085C6.0814 3.08983 5.29466 2.27671 4.39363 2.23276V2.24155ZM11.1931 4.17545V2.78216C11.1931 2.50526 11.2898 2.27231 11.6018 2.27231C11.9139 2.27231 11.9798 2.48329 11.9798 2.76458V2.94039C11.9798 3.36673 11.9798 3.36673 12.3754 3.24806C12.916 3.08543 13.439 3.29201 13.7027 3.78867C13.864 4.05593 13.9493 4.36216 13.9493 4.67431C13.9493 4.98646 13.864 5.29269 13.7027 5.55995C13.3599 6.14891 12.705 6.32912 12.1205 5.96871C12.0238 5.90278 11.9886 5.87201 11.9095 5.98629C11.7952 6.14891 11.615 6.1621 11.4348 6.08298C11.2546 6.00387 11.2062 5.83685 11.2062 5.64346L11.1931 4.17545ZM13.1445 4.6853C13.1445 4.24578 12.8984 3.91613 12.5732 3.89416C12.2479 3.87218 11.9666 4.18864 11.9666 4.63256C11.9666 5.07647 12.2128 5.40172 12.538 5.4237C12.8633 5.44567 13.1445 5.12922 13.1445 4.6853ZM8.24386 4.69409L8.93391 2.84809L9.04819 2.55361C9.14488 2.32506 9.3119 2.1932 9.57562 2.2899C9.83933 2.38659 9.88328 2.59756 9.80417 2.86128L8.99984 4.94022L8.65701 5.81048C8.59108 5.9731 8.4812 6.10496 8.27902 6.11815C8.05047 6.11815 7.93619 5.98629 7.87027 5.7885L6.7275 2.87446C6.63081 2.61075 6.68355 2.3822 6.97364 2.2855C7.26372 2.18881 7.39998 2.37341 7.50107 2.61514L8.24826 4.69409H8.24386ZM15.7465 4.92264H15.0433C14.8675 4.92264 14.8455 5.01055 14.929 5.13361C15.0785 5.41051 15.5004 5.52918 15.8608 5.39733C15.9927 5.35337 16.1069 5.28305 16.2388 5.22152C16.4146 5.12482 16.5816 5.13361 16.6959 5.31821C16.8102 5.50281 16.7398 5.67862 16.5816 5.7929C16.0542 6.15331 15.4828 6.26758 14.8939 6.02145C14.3049 5.77532 14.0763 5.28305 14.0763 4.67651C14.0588 3.88537 14.6038 3.27003 15.307 3.18213C16.0102 3.09422 16.6695 3.60847 16.8014 4.34687C16.8893 4.75562 16.7706 4.90506 16.3443 4.91825L15.7465 4.92264ZM15.4037 4.39521C15.4696 4.39521 15.5531 4.41279 15.6147 4.39521C15.7465 4.37763 15.9443 4.48312 15.9751 4.32928C16.019 4.1315 15.8608 3.98646 15.6982 3.90295C15.4696 3.78867 15.2587 3.80625 15.0609 3.99085C14.9642 4.08755 14.8499 4.20182 14.8982 4.35126C14.9466 4.5007 15.096 4.39521 15.2059 4.41719C15.2718 4.41719 15.3378 4.39961 15.4037 4.39961V4.39521Z" fill="#181818"/>
<path d="M5.34306 6.09177C5.2991 6.07419 5.22878 6.07419 5.14527 6.04782C3.85307 5.48963 2.91689 4.5886 2.39385 3.27882C2.21804 2.8393 2.39385 2.47449 2.85096 2.32945C2.93886 2.29869 3.01358 2.29869 3.09709 2.32945C3.41135 2.5678 3.6508 2.89114 3.78714 3.26124C3.80472 3.41068 3.69045 3.48979 3.58936 3.56891C3.39157 3.70076 3.39157 3.86339 3.47508 4.06117C3.67287 4.48751 3.98493 4.78199 4.40687 4.9622C4.55631 5.02813 4.70135 5.02813 4.80244 4.8655C4.97825 4.5886 5.2112 4.60179 5.46173 4.76881C5.58846 4.84732 5.70896 4.93549 5.82214 5.03252C5.98476 5.16438 6.18255 5.26107 6.08585 5.54237C5.98916 5.82366 5.64633 6.10056 5.34745 6.10056L5.34306 6.09177ZM17.0564 4.63255V3.64802C17.0498 3.56726 17.0682 3.48643 17.1091 3.41647C17.15 3.34651 17.2113 3.29079 17.2849 3.25685C17.4607 3.16894 17.6453 3.19092 17.7596 3.34475C17.8739 3.49858 17.909 3.43266 17.9881 3.34475C18.1024 3.24806 18.2519 3.19531 18.4145 3.21289C18.5771 3.23047 18.709 3.34475 18.7441 3.52056C18.7793 3.69637 18.7134 3.8502 18.5683 3.88097C17.8958 4.04359 17.7992 4.50509 17.8651 5.09405C17.8827 5.30503 17.8827 5.52039 17.8475 5.71818C17.8167 5.96431 17.6717 6.11375 17.4212 6.09617C17.1706 6.07859 17.0783 5.92036 17.0608 5.68741V4.63255H17.0564ZM10.0767 4.76441V3.83262C10.0767 3.56891 10.191 3.40628 10.4723 3.40628C10.7536 3.40628 10.8503 3.56891 10.8503 3.81504V5.70499C10.8503 5.96871 10.7184 6.13133 10.4547 6.13133C10.191 6.13133 10.0767 5.95552 10.0767 5.69181V4.76441ZM4.39369 2.24155C5.29471 2.27231 6.08145 3.09422 6.06387 3.99964C6.06387 4.08755 6.09464 4.21061 5.96718 4.21061C5.83972 4.21061 5.87048 4.07876 5.87048 3.98206C5.87068 3.58231 5.71526 3.19818 5.43714 2.91104C5.15902 2.62389 4.78005 2.45629 4.3805 2.44373C4.29259 2.42615 4.18271 2.44373 4.18271 2.34703C4.20029 2.19759 4.33215 2.25913 4.39369 2.25034V2.24155ZM10.9118 2.71623C10.8811 2.96237 10.7624 3.12499 10.5031 3.14257C10.2437 3.16015 10.0635 2.96676 10.0635 2.71623C10.0635 2.4657 10.2745 2.25913 10.5031 2.27671C10.7316 2.29429 10.8811 2.45252 10.9118 2.71623Z" fill="#181818"/>
<path d="M5.60678 3.83264C5.5892 3.89857 5.63754 4.00845 5.51887 4.03043C5.36943 4.04801 5.4046 3.91615 5.38701 3.83264C5.29032 3.26126 5.09253 3.0415 4.50797 2.90964C4.42006 2.89206 4.297 2.90964 4.31018 2.77778C4.32337 2.64593 4.45962 2.68988 4.53873 2.71186C5.1277 2.77778 5.60238 3.27005 5.60238 3.82385L5.60678 3.83264ZM5.15846 3.73595C5.15846 3.80187 5.15846 3.88538 5.06177 3.89857C4.99584 3.89857 4.96507 3.85462 4.94749 3.78429C4.92991 3.53816 4.79805 3.4063 4.50797 3.37554C4.44204 3.35795 4.35853 3.34477 4.39369 3.24368C4.41127 3.17775 4.4816 3.17775 4.54313 3.17775C4.82003 3.16017 5.11451 3.45465 5.11451 3.73595H5.15846Z" fill="#181818"/>
</svg>
